<?xml version="1.0" encoding="utf-8"?>
<!-- Generator: Adobe Illustrator 19.0.0, SVG Export Plug-In . SVG Version: 6.00 Build 0)  -->
<svg version="1.1" id="Layer_1" xmlns="http://www.w3.org/2000/svg" xmlns:xlink="http://www.w3.org/1999/xlink" x="0px" y="0px"
	 viewBox="785 -362 1800 825" style="enable-background:new 785 -362 1800 825;" xml:space="preserve">
<style type="text/css">
	.st0{fill:#E0C319;}
	.st1{fill:#26DD70;}
	.st2{fill:#F48245;}
	.st3{fill:#302E2E;}
	.st4{fill:#6B69CC;}
	.st5{fill:#E20E23;}
	.st6{fill:#EF5C73;}
	.st7{fill:#EF16C6;}
	.st8{fill:#57C4CF;}
	.st9{fill:#231F20;stroke:#231F20;stroke-width:3;stroke-miterlimit:10;}
	.st10{fill:#FFFFFF;}
	.st11{font-family:'Lato';}
	.st12{font-size:36.3689px;font-weight:700}
	.st13{fill:#D8D8DA;}
	.st14{fill:#CDCDCF;}
	.st15{opacity:0.35;fill:url(#SVGID_1_);enable-background:new    ;}
	.st16{opacity:0.35;fill:url(#SVGID_2_);enable-background:new    ;}
	.st17{opacity:0.15;}
	.st18{opacity:0.25;fill:url(#SVGID_3_);enable-background:new    ;}
	.st19{opacity:0.35;fill:url(#SVGID_4_);enable-background:new    ;}
	.st20{fill:none;stroke:#FFFFFF;stroke-width:3;stroke-linecap:round;stroke-linejoin:round;stroke-miterlimit:10;}
	.st21{fill:#D1D3D4;}
	.st22{fill:#122B42;}
	.st23{fill:#1C4563;}
	.st24{opacity:0.3;fill:#404041;enable-background:new    ;}
	.st25{fill:#F1F2F2;}
</style>
<link  href="https://fonts.googleapis.com/css?family=Lato:700" rel="stylesheet"></link>
<image style="overflow:visible;enable-background:new    ;" width="1664" height="760" xlink:href="intro-cover2.jpg"  transform="matrix(1.0817 0 0 1.0855 785 -362)">
</image>
<g>
	<ellipse class="st0" cx="2055.3" cy="103.1" rx="43.8" ry="40.2"/>
	<ellipse class="st1" cx="1695.1" cy="-68.2" rx="43.8" ry="40.2"/>
	<ellipse class="st2" cx="1942.8" cy="-21.3" rx="43.8" ry="40.2"/>
	<ellipse class="st3" cx="2088.5" cy="397.8" rx="43.8" ry="40.2"/>
	<ellipse class="st4" cx="1471.3" cy="-22" rx="43.8" ry="40.2"/>
	<ellipse class="st5" cx="1393.3" cy="105" rx="43.8" ry="40.2"/>
	<ellipse class="st6" cx="2117.4" cy="268.4" rx="43.8" ry="40.2"/>
	<ellipse class="st7" cx="1306" cy="401.1" rx="43.8" ry="40.2"/>
	<ellipse class="st8" cx="1347.7" cy="260.6" rx="43.8" ry="40.2"/>
	<path class="st9" d="M1697.9-14.1h-1.4v-2.4h1.4V-14.1z M1750.2,91.5L1750.2,91.5L1750.2,91.5z M1745.1,85.6L1745.1,85.6
		L1745.1,85.6z M1745.8,85.2h-1.4v-2.5h1.4V85.2z M1745.8,77.8h-1.4v-2.4h1.4V77.8z M1745.8,70h-0.3l-0.4,0.4h-2.4v-1.3h3.2
		L1745.8,70L1745.8,70z M1737.2,69.1v1.3h-2.7v-1.3H1737.2z M1729,69.1v1.3h-2.7v-1.3H1729z M1720.8,69.1v1.3h-2.7v-1.3H1720.8z
		 M1712.6,69.1v1.3h-2.7v-1.3H1712.6z M1704.4,69.1v1.3h-2.7v-1.3H1704.4z M1697.9,68.9h-1.4v-2.4h1.4V68.9z M1697.9,61.3h-1.4v-2.4
		h1.4V61.3z M1697.9,53.7h-1.4v-2.4h1.4V53.7z M1697.9,46.2h-1.4v-2.4h1.4V46.2z M1697.9,38.7h-1.4v-2.4h1.4V38.7z M1697.9,31.2
		h-1.4v-2.4h1.4V31.2z M1697.9,23.7h-1.4v-2.4h1.4V23.7z M1697.9,16h-1.4v-2.4h1.4V16z M1697.9,8.5h-1.4V6h1.4V8.5z M1697.9,1h-1.4
		v-2.4h1.4V1z M1697.9-6.7h-1.4v-2.4h1.4V-6.7z"/>
	<path class="st9" d="M1946.9,30.5h-1.6v-2.4h1.6V30.5z M1865.8,99.8L1865.8,99.8L1865.8,99.8z M1859.5,93.8L1859.5,93.8
		L1859.5,93.8z M1860.4,92.7h-1.6v-2.4h1.6V92.7z M1860.4,85.2h-1.6v-2.4h1.6V85.2z M1860.4,77.8h-1.6v-2.4h1.6V77.8z M1859.6,70.7
		v-1.3h3.2v1.3H1859.6z M1869.4,70.7v-1.3h3.2v1.3H1869.4z M1879.3,70.7v-1.3h3.2v1.3H1879.3z M1889.1,70.7v-1.3h3.2v1.3H1889.1z
		 M1899.1,70.7v-1.3h3.2v1.3H1899.1z M1909,70.7v-1.3h3.2v1.3H1909z M1918.9,70.7v-1.3h3.2v1.3H1918.9z M1928.7,70.7v-1.3h3.2v1.3
		H1928.7z M1938.7,70.7v-1.3h3.2v1.3H1938.7z M1946.9,68.3h-1.6v-2.4h1.6V68.3z M1946.9,60.7h-1.6v-2.4h1.6V60.7z M1946.9,53.1h-1.6
		v-2.4h1.6V53.1z M1946.9,45.6h-1.6v-2.4h1.6V45.6z M1946.9,38.2h-1.6v-2.4h1.6V38.2z"/>
	<path class="st9" d="M1483.7,22.9h1.7v2.5h-1.7V22.9z M1567.3,98.4L1567.3,98.4L1567.3,98.4z M1573.7,92L1573.7,92L1573.7,92z
		 M1572.8,88.3h1.7v2.5h-1.7V88.3z M1572.8,80.5h1.7V83h-1.7V80.5z M1572.8,72.6h1.7v2.5h-1.7V72.6z M1570.3,67.8v-1.4h3.3v1.4
		H1570.3z M1560.2,67.8v-1.4h3.3v1.4H1560.2z M1550,67.8v-1.4h3.3v1.4H1550z M1539.9,67.8v-1.4h3.3v1.4H1539.9z M1529.5,67.8v-1.4
		h3.3v1.4H1529.5z M1519.4,67.8v-1.4h3.3v1.4H1519.4z M1509.2,67.8v-1.4h3.3v1.4H1509.2z M1499.1,67.8v-1.4h3.3v1.4H1499.1z
		 M1488.8,67.8v-1.4h3.3v1.4H1488.8z M1483.7,62.6h1.7v2.5h-1.7V62.6z M1483.7,54.6h1.7v2.5h-1.7V54.6z M1483.7,46.6h1.7v2.5h-1.7
		V46.6z M1483.7,38.8h1.7v2.5h-1.7V38.8z M1483.7,30.9h1.7v2.5h-1.7V30.9z"/>
	<path class="st9" d="M1395.9,154.9h-1.4v-2.4h1.4V154.9z M1486.3,177.2L1486.3,177.2L1486.3,177.2z M1479.7,181.3L1479.7,181.3
		l-1.8-0.1v-1.3h1.8V181.3z M1472.4,181.3v1.3h-2.7v-1.3H1472.4z M1464.3,181.3v1.3h-2.7v-1.3H1464.3z M1456,181.3v1.3h-2.7v-1.3
		H1456z M1447.9,181.3v1.3h-2.7v-1.3H1447.9z M1439.7,181.3v1.3h-2.7v-1.3H1439.7z M1431.5,181.3v1.3h-2.7v-1.3H1431.5z
		 M1423.2,181.3v1.3h-2.7v-1.3H1423.2z M1415.1,181.3v1.3h-2.7v-1.3H1415.1z M1406.9,181.3v1.3h-2.7v-1.3H1406.9z M1398.7,181.3v1.3
		h-2.7v-1.3H1398.7z M1395.9,177.6h-1.4v-2.4h1.4V177.6z M1395.9,170h-1.4v-2.4h1.4V170z M1395.9,162.5h-1.4v-2.4h1.4V162.5z"/>
	<path class="st9" d="M1406.2,261.9v1.3h-2.7v-1.3H1406.2z M1486.3,257.7L1486.3,257.7L1486.3,257.7z M1479.7,261.9L1479.7,261.9
		l-2.5-0.1v-1.3h2.5V261.9z M1471.7,261.9v1.3h-2.7v-1.3H1471.7z M1463.6,261.9v1.3h-2.7v-1.3H1463.6z M1455.4,261.9v1.3h-2.7v-1.3
		H1455.4z M1447.2,261.9v1.3h-2.7v-1.3H1447.2z M1438.9,261.9v1.3h-2.7v-1.3H1438.9z M1430.7,261.9v1.3h-2.7v-1.3H1430.7z
		 M1422.6,261.9v1.3h-2.7v-1.3H1422.6z M1414.5,261.9v1.3h-2.7v-1.3H1414.5z"/>
	<path class="st9" d="M1359.7,402v1.3h-2.7V402H1359.7z M1461.9,359.3L1461.9,359.3L1461.9,359.3z M1467,365.2L1467,365.2
		L1467,365.2z M1466.3,365.6h1.4v2.4h-1.4V365.6z M1466.3,373h1.4v2.4h-1.4V373z M1466.3,380.6h1.4v2.4h-1.4V380.6z M1466.3,388.3
		h1.4v2.4h-1.4V388.3z M1466.3,395.7h1.4v2.4h-1.4V395.7z M1466.3,402v1.3h-2.7V402H1466.3z M1458.1,402v1.3h-2.7V402H1458.1z
		 M1449.9,402v1.3h-2.7V402H1449.9z M1441.6,402v1.3h-2.7V402H1441.6z M1433.5,402v1.3h-2.7V402H1433.5z M1425.3,402v1.3h-2.7V402
		H1425.3z M1417.2,402v1.3h-2.7V402H1417.2z M1408.9,402v1.3h-2.7V402H1408.9z M1400.7,402v1.3h-2.7V402H1400.7z M1392.5,402v1.3
		h-2.7V402H1392.5z M1384.3,402v1.3h-2.7V402H1384.3z M1376,402v1.3h-2.7V402H1376z M1367.9,402v1.3h-2.7V402H1367.9z"/>
	<path class="st9" d="M2029.5,402.7v-1.4h2.7v1.3L2029.5,402.7L2029.5,402.7z M1952.6,356L1952.6,356L1952.6,356z M1957.8,362
		L1957.8,362L1957.8,362z M1957.1,362.3h1.4v2.4h-1.4V362.3z M1957.1,369.9h1.4v2.4h-1.4V369.9z M1957.1,377.5h1.4v2.4h-1.4V377.5z
		 M1957.1,384.9h1.4v2.4h-1.4V384.9z M1957.1,392.5h1.4v2.4h-1.4V392.5z M1957.1,400.1h1.4v2.4h-1.4L1957.1,400.1L1957.1,400.1z
		 M1964,402.7v-1.4h2.7v1.3L1964,402.7L1964,402.7z M1972.1,402.7v-1.4h2.7v1.3L1972.1,402.7L1972.1,402.7z M1980.3,402.7v-1.4h2.7
		v1.3L1980.3,402.7L1980.3,402.7z M1988.5,402.7v-1.4h2.7v1.3L1988.5,402.7L1988.5,402.7z M1996.7,402.7v-1.4h2.7v1.3L1996.7,402.7
		L1996.7,402.7z M2004.9,402.7v-1.4h2.7v1.3L2004.9,402.7L2004.9,402.7z M2013.2,402.7v-1.4h2.7v1.3L2013.2,402.7L2013.2,402.7z
		 M2021.3,402.7v-1.4h2.7v1.3L2021.3,402.7L2021.3,402.7z"/>
	<path class="st9" d="M2051.5,267.3V266h2.7v1.3H2051.5z M1970.7,271.3L1970.7,271.3L1970.7,271.3z M1977.2,266.6L1977.2,266.6
		L1977.2,266.6z M1977.6,267.3V266h2.7v1.3H1977.6z M1985.8,267.3V266h2.7v1.3H1985.8z M1994.1,267.3V266h2.7v1.3H1994.1z
		 M2002.3,267.3V266h2.7v1.3H2002.3z M2010.5,267.3V266h2.7v1.3H2010.5z M2018.6,267.3V266h2.7v1.3H2018.6z M2026.9,267.3V266h2.7
		v1.3H2026.9z M2035.1,267.3V266h2.7v1.3H2035.1z M2043.3,267.3V266h2.7v1.3H2043.3z"/>
	<path class="st9" d="M2051.5,158.7h-1.4v-2.4h1.4V158.7z M1965.2,188.6L1965.2,188.6L1965.2,188.6z M1971.7,183.8L1971.7,183.8
		L1971.7,183.8z M1972.2,184.5v-1.3h2.7v1.3H1972.2z M1980.4,184.5v-1.3h2.7v1.3H1980.4z M1988.6,184.5v-1.3h2.7v1.3H1988.6z
		 M1996.9,184.5v-1.3h2.7v1.3H1996.9z M2005.1,184.5v-1.3h2.7v1.3H2005.1z M2013.3,184.5v-1.3h2.7v1.3H2013.3z M2021.4,184.5v-1.3
		h2.7v1.3H2021.4z M2029.7,184.5v-1.3h2.7v1.3H2029.7z M2037.9,184.5v-1.3h2.7v1.3H2037.9z M2046.1,184.5v-1.3h1.4h0.1l1.4,0.3
		l-0.3,1.3l-1.4-0.3H2046.1L2046.1,184.5z M2051.5,181.3h-1.4v-2.4h1.4V181.3z M2051.5,173.7h-1.4v-2.4h1.4V173.7z M2051.5,166.3
		h-1.4v-2.4h1.4V166.3z"/>
	<path class="st10" d="M1382,109.5h34.4l6.1-20h-9l-3.2-9.1l-13.4,4l1.8,5.1h-0.6l-3.3-9.1l-13.4,3.9l1.8,5.1h-7.2l-1.5-5.4
		c-0.7-2.7-3.3-4.7-6.3-4.7h-4.1v2.3h4.1c1.9,0,3.5,1.2,4,2.9l6.6,23.7c-1.4,0.9-2.3,2.4-2.3,4.1c0,2.7,2.5,5,5.5,5h33.7V115H1382
		c-1.6,0-3-1.3-3-2.7C1379,110.8,1380.3,109.5,1382,109.5L1382,109.5z M1408.7,83.4l2.3,6.2h-9.7l-1.4-3.5L1408.7,83.4z
		 M1393.1,83.4l2.3,6.2h-9.7l-1.4-3.5L1393.1,83.4z M1419.3,91.8l-4.7,15.5h-33.5l-4.3-15.5H1419.3z"/>
	<path class="st10" d="M1404.6,120.8c-2.9,0-5.2,2.2-5.2,4.8c0,2.6,2.3,4.8,5.2,4.8c3,0,5.2-2.2,5.2-4.8S1407.4,120.8,1404.6,120.8z
		 M1404.6,128.3c-1.6,0-2.9-1.3-2.9-2.6c0-1.4,1.4-2.6,2.9-2.6c1.6,0,2.9,1.2,2.9,2.6C1407.4,127,1406.1,128.3,1404.6,128.3z"/>
	<path class="st10" d="M1385.5,120.8c-2.9,0-5.2,2.2-5.2,4.8c0,2.6,2.3,4.8,5.2,4.8s5.2-2.2,5.2-4.8
		C1390.7,123,1388.3,120.8,1385.5,120.8z M1385.5,128.3c-1.6,0-2.9-1.3-2.9-2.6c0-1.4,1.4-2.6,2.9-2.6s2.9,1.2,2.9,2.6
		S1386.9,128.3,1385.5,128.3z"/>
	<path class="st10" d="M1361.3,277.6h-5.5c-0.2,0-0.4-0.2-0.4-0.4v-1.4c0-0.2-0.2-0.4-0.4-0.4h-7.7c-0.2,0-0.4,0.2-0.4,0.4v1.4
		c0,0.2-0.2,0.4-0.4,0.4h-4.1c-0.2,0-0.4,0.2-0.4,0.4v1.5c0,0.2,0.2,0.4,0.4,0.4h18.8c0.2,0,0.4-0.2,0.4-0.4V278
		C1361.6,277.7,1361.4,277.6,1361.3,277.6z"/>
	<path class="st10" d="M1370.5,241.1h-39.3c-1.4,0-2.5,1.2-2.5,2.4v6.5c0,0.8-0.1,1,0.5,1h1c0.5,0,0.4-0.1,0.4-1v-6.5
		c0-0.4,0.3-0.5,0.6-0.5h39.3c0.4,0,0.6,0.3,0.6,0.5V268h-27.9c0,0-1,0-1,1.4v3.1c0,1.4,1,1.4,1,1.4h27.3c1.4,0,2.5-1.2,2.5-2.4
		v-27.6C1373,242.2,1371.8,241.1,1370.5,241.1L1370.5,241.1z M1350.9,271.4c-0.6,0-1.2-0.5-1.2-1.2c0-0.6,0.5-1.2,1.2-1.2
		c0.6,0,1.2,0.5,1.2,1.2C1352,271,1351.5,271.4,1350.9,271.4z"/>
	<path class="st10" d="M1338.3,253.2h-14.2c-0.9,0-1.6,0.7-1.6,1.6v23.6c0,0.9,0.7,1.6,1.6,1.6h14.2c0.9,0,1.6-0.7,1.6-1.6v-23.6
		C1339.9,253.9,1339.2,253.2,1338.3,253.2z M1329.5,254.8h3.5c0.2,0,0.3,0.2,0.3,0.4c0,0.2-0.2,0.4-0.3,0.4h-3.5
		c-0.2,0-0.3-0.2-0.3-0.4C1329.1,255,1329.3,254.8,1329.5,254.8z M1331.2,278.9c-0.5,0-0.8-0.5-0.8-0.8c0-0.5,0.4-0.8,0.8-0.8
		c0.5,0,0.8,0.5,0.8,0.8C1332,278.5,1331.6,278.9,1331.2,278.9z M1338.5,276.5c0,0.3-0.2,0.5-0.4,0.5h-14c-0.2,0-0.4-0.2-0.4-0.5
		v-19.6c0-0.3,0.2-0.5,0.4-0.5h14c0.2,0,0.4,0.2,0.4,0.5V276.5z"/>
	<path class="st10" d="M1328.1,413v-29.3h-44.4V413h14v4h-3.7v1.5h24.1V417h-3.7v-4H1328.1z M1285.5,385.3h40.7v21.3h-40.7V385.3z
		 M1312.5,417h-13v-4h13V417z M1285.5,411.4v-3.2h40.7v3.2H1285.5z"/>
	<polygon class="st10" points="1309.7,393 1308.3,394.1 1310.9,396.4 1308.3,398.7 1309.7,399.8 1313.5,396.4 	"/>
	<polygon class="st10" points="1302.2,394.1 1300.9,393 1297,396.4 1300.9,399.8 1302.2,398.7 1299.6,396.4 	"/>
	<polygon class="st10" points="1308,392.8 1304.3,400.7 1302.6,400.1 1306.2,392.1 	"/>
	<path class="st10" d="M2106.9,372.1c-5.2,0-9.5,3.9-9.5,8.6c0,4.6,4,8.4,9,8.6v0.8c0,1.4-1.2,2.4-2.7,2.4h-9.9
		c-1.5,0-2.7-1.1-2.7-2.4v-5c0-2.3-2-4.1-4.5-4.1h-9c-2.4,0-4.5,1.8-4.5,4.1v5h-2.7c-5.4,0-9.9,4.1-9.9,9.1v14.9
		c0,5,4.4,9.1,9.9,9.1h7.2c5.4,0,9.9-4.1,9.9-9.1v-14.8c0-5-4.4-9.1-9.9-9.1h-2.7v-5c0-1.4,1.2-2.4,2.7-2.4h9c1.5,0,2.7,1.1,2.7,2.4
		v5c0,2.3,2,4.1,4.5,4.1h9.9c2.4,0,4.5-1.8,4.5-4.1v-0.9c4.6-0.5,8.1-4.2,8.1-8.6C2116.3,375.9,2112.1,372.1,2106.9,372.1z
		 M2062.6,399.3c0-4.1,3.6-7.4,8.1-7.4h2.7v9.1h-10.8V399.3z M2075,391.9h2.7c4.5,0,8.1,3.3,8.1,7.4v1.6H2075V391.9z M2085.8,402.7
		v11.4c0,4.1-3.6,7.4-8.1,7.4h-7.2c-4.5,0-8.1-3.3-8.1-7.4v-11.4H2085.8z M2106.9,387.8c-4.2,0-7.7-3.2-7.7-7s3.4-7,7.7-7
		s7.7,3.2,7.7,7S2111.1,387.8,2106.9,387.8z"/>
	<path class="st10" d="M2109.5,380.6c-0.4-0.5-1.1-0.7-2.2-1v-2.3c0.4,0.2,0.7,0.5,0.8,0.9l1.6-0.2c-0.1-0.5-0.4-1.1-0.8-1.4
		c-0.4-0.4-1-0.5-1.6-0.6v-0.5h-0.9v0.5c-0.7,0.1-1.4,0.4-1.8,0.7c-0.5,0.4-0.7,1-0.7,1.6c0,0.6,0.2,1.2,0.6,1.6
		c0.4,0.5,1,0.8,1.9,1v2.4c-0.2-0.1-0.5-0.3-0.6-0.5c-0.2-0.3-0.3-0.5-0.4-0.8l-1.7,0.2c0.1,0.7,0.5,1.4,0.9,1.8
		c0.5,0.5,1.1,0.6,1.8,0.7v1.1h0.9v-1.2c0.8-0.1,1.5-0.5,2-0.9c0.5-0.5,0.7-1.1,0.7-1.8C2110.1,381.5,2109.9,381.1,2109.5,380.6
		L2109.5,380.6z M2106.5,379.4c-0.3-0.1-0.5-0.3-0.6-0.5c-0.2-0.2-0.2-0.5-0.2-0.5c0-0.3,0.1-0.5,0.2-0.6c0.2-0.2,0.4-0.4,0.6-0.5
		V379.4z M2108.2,383.2c-0.2,0.3-0.4,0.4-0.8,0.5v-2.3c0.4,0.1,0.6,0.3,0.8,0.5c0.2,0.2,0.3,0.5,0.3,0.6
		C2108.5,382.8,2108.4,383,2108.2,383.2z"/>
	<path class="st10" d="M1722.2-50.1h-2.6v-24.4c0-1.2-1.4-2.1-3.2-2.1h-5.8c-1.7,0-3.2,0.9-3.2,2.1v24.4h-6.5v-13.2
		c0-1.2-1.4-2.1-3.2-2.1h-5.7c-1.7,0-3.2,0.9-3.2,2.1v13.2h-6.6V-57c0-1.2-1.4-2.1-3.2-2.1h-5.8c-1.7,0-3.2,0.9-3.2,2.1v6.9h-2.7
		c-0.6,0-1.2,0.4-1.2,0.7c0,0.5,0.5,0.7,1.2,0.7h54.4c0.6,0,1.2-0.4,1.2-0.7C1723.2-49.7,1722.9-50.1,1722.2-50.1L1722.2-50.1z
		 M1680.2-50.1h-7.4V-57c0-0.4,0.4-0.5,0.8-0.5h5.8c0.5,0,0.8,0.3,0.8,0.5L1680.2-50.1L1680.2-50.1z M1698.7-50.1h-7.4v-13.2
		c0-0.4,0.4-0.5,0.8-0.5h5.8c0.5,0,0.8,0.3,0.8,0.5L1698.7-50.1L1698.7-50.1z M1717.4-50.1h-7.4v-24.4c0-0.4,0.4-0.5,0.8-0.5h5.8
		c0.5,0,0.8,0.3,0.8,0.5L1717.4-50.1L1717.4-50.1z"/>
	<path class="st10" d="M1719.6-86.9c0-0.3-0.1-0.5-0.4-0.5c-0.3-0.2-0.5-0.3-0.9-0.3h-0.1h-7.1c-0.6,0-1.2,0.4-1.2,0.7
		c0,0.5,0.5,0.7,1.2,0.7h4.4l-11.6,7.6l-4.4-2.9c-0.2-0.2-0.5-0.3-0.8-0.3c-0.3,0-0.6,0.1-0.8,0.3l-21.1,13.8
		c-0.5,0.4-0.5,0.7,0,1.1c0.3,0.2,0.5,0.3,0.8,0.3c0.3,0,0.6-0.1,0.8-0.3l20.3-13.1l4.4,2.9c0.5,0.4,1.2,0.4,1.6,0l12.4-8.1v2.5
		c0,0.5,0.5,0.7,1.2,0.7c0.6,0,1.2-0.4,1.2-0.7L1719.6-86.9L1719.6-86.9z"/>
	<path class="st10" d="M1492.8-34.1h-0.4v-0.4c0-8.6-7.7-15.6-17-15.6c-3.5,0-6.8,1-9.7,2.8c-2.4,1.5-4.4,3.7-5.7,6.1
		c-0.5-0.1-1.1-0.2-1.6-0.2c-3.9,0-7.2,2.4-8.1,5.7h-0.6c-5.9,0-10.8,4.4-10.8,9.9c0,0.8,0.1,1.7,0.4,2.6c0.6,2.7,3.3,4.7,6.4,4.7
		h8.7v7.6h-2.7c-0.5-1.8-2.3-3.1-4.5-3.1c-2.6,0-4.7,1.9-4.7,4.3c0,2.4,2.1,4.3,4.7,4.3c2.2,0,4-1.4,4.5-3.1h4.1
		c0.7,0,1.4-0.5,1.4-1.3v-8.7h6.8v15.8c-2,0.5-3.3,2.2-3.3,4.1c0,2.4,2.1,4.3,4.7,4.3s4.7-1.9,4.7-4.3c0-2-1.4-3.6-3.3-4.1v-15.7
		h9.5v15.8c-2,0.5-3.3,2.2-3.3,4.1c0,2.4,2.1,4.3,4.7,4.3s4.7-1.9,4.7-4.3c0-2-1.4-3.6-3.3-4.1v-15.8h6.8v8.7c0,0.6,0.6,1.3,1.4,1.3
		h4.1c0.5,1.8,2.3,3.1,4.5,3.1c2.6,0,4.7-1.9,4.7-4.3c0-2.4-2.1-4.3-4.7-4.3c-2.2,0-4,1.4-4.5,3.1h-2.7v-7.6h8.9
		c3.6,0,6.6-2.6,6.6-5.9v-0.1C1503.6-29.6,1498.7-34.1,1492.8-34.1L1492.8-34.1z M1447.3-7.6c-1.1,0-2-0.8-2-1.8s0.9-1.8,2-1.8
		c1.1,0,2,0.8,2,1.8S1448.4-7.6,1447.3-7.6z M1495.3-11.3c1.1,0,2,0.8,2,1.8s-0.9,1.8-2,1.8s-2-0.8-2-1.8S1494.2-11.3,1495.3-11.3
		L1495.3-11.3z M1467.3,1.8c0,1-0.9,1.8-2,1.8c-1.1,0-2-0.8-2-1.8s0.9-1.8,2-1.8C1466.4,0,1467.3,0.8,1467.3,1.8z M1479.4,1.8
		c0,1-0.9,1.8-2,1.8c-1.1,0-2-0.8-2-1.8s0.9-1.8,2-1.8C1478.5,0,1479.4,0.8,1479.4,1.8z M1500.9-24c0,1.9-1.7,3.4-3.9,3.4h-51.1
		c-1.8,0-3.4-1.2-3.8-2.8c-0.2-0.7-0.3-1.4-0.3-2.2c0-4.1,3.6-7.4,8.1-7.4c0.5,0,1,0.1,1.4,0.1c0.4,0.1,0.7,0,1.1-0.3
		c0.3-0.3,0.5-0.5,0.5-0.9c0.3-2.7,2.7-4.7,5.7-4.7c0.6,0,1.4,0.1,1.9,0.4c0.7,0.3,1.4-0.1,1.7-0.7c2.1-5,7.5-8.4,13.3-8.4
		c7.9,0,14.3,5.9,14.3,13.1c0,0.5,0,1.1-0.1,1.5c-0.1,0.5,0.1,0.7,0.5,1.1c0.3,0.3,0.7,0.5,1.2,0.4c0.5-0.1,1-0.2,1.5-0.2
		C1497.3-31.5,1500.9-28.2,1500.9-24L1500.9-24z"/>
	<path class="st10" d="M1449.8-30.4c-3,0-5.4,2.3-5.4,5c0,0.5,0.1,1,0.2,1.4c0.1,0.5,0.7,1,1.4,1h0.3c0.7-0.2,1.2-0.8,1.1-1.4
		c-0.1-0.4-0.1-0.7-0.1-1c0-1.4,1.2-2.4,2.7-2.4c0.7,0,1.4-0.5,1.4-1.3C1451.2-29.9,1450.6-30.4,1449.8-30.4L1449.8-30.4z"/>
	<path class="st10" d="M1448-39.2c-0.7,0-1.4,0.5-1.4,1.3c0,0.6,0.6,1.3,1.4,1.3c1.4,0,2.6,1.1,2.7,2.4c0,0.6,0.6,1.2,1.4,1.2h0.1
		c0.7,0,1.4-0.5,1.3-1.4C1453.3-37.1,1450.9-39.2,1448-39.2L1448-39.2z"/>
	<path class="st10" d="M1475.5-45.1c-4.8,0-9.1,2.7-10.8,6.8c-0.3,0.6,0.1,1.4,0.8,1.5c0.7,0.2,1.4-0.1,1.7-0.7
		c1.4-3.2,4.7-5.2,8.3-5.2c5,0,8.9,3.6,8.9,8.1c0,0.6,0.6,1.3,1.4,1.3c0.7,0,1.4-0.5,1.4-1.3C1487.1-40.3,1481.9-45.1,1475.5-45.1
		L1475.5-45.1z"/>
	<path class="st10" d="M2111,242.7c-11.8,0-21.3,8.7-21.3,19.6c0,10.8,9.5,19.6,21.3,19.6s21.3-8.7,21.3-19.6
		C2132.2,251.4,2122.7,242.7,2111,242.7z M2111,279.2c-10.2,0-18.5-7.6-18.5-16.9s8.3-16.9,18.5-16.9s18.5,7.6,18.5,16.9
		S2121,279.2,2111,279.2z"/>
	<path class="st10" d="M2136.4,292.6l1.3,1.4c0.4,0.4,0.9,0.5,1.3,0l6.2-5.7c0.4-0.4,0.4-0.8,0-1.2l-1.4-1.2L2136.4,292.6
		L2136.4,292.6z"/>
	<path class="st10" d="M2131.2,275.7c-0.4-0.3-0.9-0.3-1.2,0l-4.5,4.1c-0.4,0.4-0.4,0.7,0,1.1l0.5,0.5l5.8-5.3L2131.2,275.7
		L2131.2,275.7z"/>
	<polygon class="st10" points="2125.9,281.4 2136.4,292.6 2143.7,285.7 2131.7,276 	"/>
	<rect x="2097.9" y="269.8" class="st10" width="23.8" height="1.4"/>
	<rect x="2099.5" y="263" class="st10" width="3.6" height="5.6"/>
	<rect x="2105.2" y="256.8" class="st10" width="3.6" height="11.8"/>
	<rect x="2110.8" y="261" class="st10" width="3.6" height="7.6"/>
	<rect x="2116.3" y="253.3" class="st10" width="3.6" height="15.2"/>
	<path class="st10" d="M1968.1-28.8l-1.6-5.9c-0.1-0.3-0.3-0.5-0.6-0.5c-0.3-0.1-0.6-0.1-0.9,0.1l-5.3,3.6c-0.2,0.1-0.3,0.3-0.4,0.5
		l-2.5,6.5c-0.6-0.5-1.4-1.1-2.2-1.4l0.9-7.2c2.3-2.8,3.2-5.7,2.8-8.5c-0.7-4.3-4.5-6.8-4.7-6.9c-0.4-0.3-0.8-0.3-1.1,0
		c-0.4,0.3-0.5,0.6-0.3,1l0.5,1.1c0.7,1.7,0,3.7-1.7,4.7c-2.7,1.5-3.6,4.7-2.2,7.3l0.5,0.8l-0.4,5.9c-0.5-0.1-1-0.1-1.5-0.1
		c-1.1,0-2.2,0.1-3.2,0.4l-0.2-0.6c0.3-0.2,0.5-0.4,0.6-0.5c0.3-0.5,0.5-1,0.3-1.4c-0.1-0.5-0.5-1-0.9-1.3c-0.3-0.2-0.5-0.3-0.8-0.3
		l-0.2-0.9c-0.1-0.5-0.1-0.7,0.1-1.1c0.5-1.2,0.2-2.7-0.7-3.7l-5-5.3c-0.3-0.3-0.5-0.4-0.9-0.3c-0.4,0.1-0.6,0.4-0.7,0.5l-2.2,6.8
		c-0.4,1.3,0.1,2.8,1.1,3.6c0.3,0.3,0.5,0.5,0.5,1l0.2,0.9c-0.3,0.2-0.5,0.4-0.6,0.5c-0.3,0.5-0.5,1-0.3,1.4c0.1,0.5,0.5,1,0.9,1.3
		c0.3,0.2,0.5,0.3,0.8,0.4l0.7,3.1c-0.6,0.6-1.2,1.4-1.7,2.2c-0.3,0-0.5-0.1-0.8-0.1l-4.2-5.9c-0.2-0.2-0.4-0.4-0.6-0.5
		c-0.3-0.1-0.5,0-0.7,0.1l-10.1,6c-0.5,0.3-0.5,0.8-0.3,1.2l3.7,5.3c-3.1,0.6-5.3,3.2-5.3,6.2c0,3.5,3.2,6.4,7,6.4h35.6
		c3.9,0,7-2.9,7-6.4c0-2.5-1.6-4.8-4-5.8l5.1-13.3C1968.1-28.5,1968.1-28.7,1968.1-28.8L1968.1-28.8z M1965-33.1l0.3,0.9
		c-0.2,0-0.4-0.1-0.5-0.1c-0.2,0-0.4-0.2-0.5-0.3L1965-33.1L1965-33.1z M1960.8-29.4c0.5,0.4,1.1,0.5,1.6,0.8l-2.7,7.1
		c-0.4-0.5-0.8-1.2-1.3-1.7L1960.8-29.4z M1952.3-40.7c1.8-1,2.8-2.8,2.9-4.6c0.7,0.9,1.4,2.2,1.6,3.5c0.4,2.3-0.4,4.6-2.3,7
		l-3.3-0.3l-0.4-0.6C1949.7-37.5,1950.4-39.5,1952.3-40.7L1952.3-40.7z M1951.3-31.8l0.1-1.3l2.4,0.2l-0.2,1.3L1951.3-31.8z
		 M1953.4-29.9l-0.4,3c-0.6-0.3-1.4-0.5-2.1-0.6l0.2-2.4L1953.4-29.9L1953.4-29.9z M1936.1-33.6c-0.5-0.5-0.7-1.3-0.5-1.9l1.1-3.5
		l0.6,2.7c0.1,0.5,0.5,0.6,0.9,0.6h0.2c0.5-0.1,0.8-0.5,0.7-1l-0.6-2.7l2.6,2.7c0.5,0.5,0.6,1.4,0.4,1.9c-0.3,0.6-0.4,1.4-0.2,2.1
		l0.2,0.8l-4.1,0.8l-0.2-0.8C1937-32.4,1936.7-33.1,1936.1-33.6L1936.1-33.6z M1937.1-28.5C1937-28.5,1937-28.5,1937.1-28.5h-0.2
		h-0.2c0,0-0.1-0.1-0.1-0.2v-0.2c0,0,0.1-0.1,0.2-0.1h0.1l6.1-1.3h0.1h0.2c0,0,0.1,0.1,0.1,0.2v0.2c0,0-0.1,0.1-0.2,0.1L1937.1-28.5
		z M1942.6-27.2c-0.8,0.4-1.6,0.6-2.4,1.1c-0.5,0.3-0.9,0.5-1.4,0.9l-0.5-1.9l4.1-0.8L1942.6-27.2z M1921-21l8.6-5l3.1,4.3
		c-1.8,0.2-3.5,0.8-5,1.8c-1.4,1-2.5,2.3-3.2,3.7L1921-21L1921-21z M1965.1-9.2c0,2.5-2.3,4.7-5.1,4.7h-35.6c-2.8,0-5.1-2.2-5.1-4.7
		c0-2.5,2.3-4.7,5.1-4.7h0.5c0.5,0,0.8-0.3,1-0.5c1.1-3.3,4.4-5.5,8.1-5.5c0.6,0,1.4,0.1,2,0.3c0.5,0.1,0.9-0.1,1.1-0.5
		c2.1-3.7,6.1-6.1,10.7-6.1c6.6,0,11.9,4.9,11.9,10.9v0.6c0,0.5,0.4,0.9,0.9,0.9C1963.1-13.7,1965.1-11.6,1965.1-9.2L1965.1-9.2z
		 M1961.4-15.9c-0.1-1.2-0.3-2.3-0.6-3.3l3.4-8.8c0.6,0.2,1.2,0.3,1.8,0.3L1961.4-15.9L1961.4-15.9z M1961.9-30.8l0.8-0.5
		c0.5,0.4,0.9,0.5,1.4,0.7c0.5,0.2,1,0.3,1.4,0.3h0.2l0.3,0.9C1964.6-29.6,1963.1-30.1,1961.9-30.8z"/>
	<g>
		<text transform="matrix(1.0872 0 0 1 1139.3019 390.6848)" class="st11 st12">WEB</text>
	</g>
	<text transform="matrix(1.0872 0 0 1 940.1422 431.9221)" class="st11 st12">DEVELOPMENT</text>
	<text transform="matrix(1.0872 0 0 1 1027.0602 276.8547)" class="st11 st12">WEB DESIGN</text>
	<g>
		<text transform="matrix(1.0872 0 0 1 1060.2096 125.5763)" class="st11 st12">E-COMMERCE</text>
	</g>
	<g>
		<text transform="matrix(1.0872 0 0 1 2114.7107 122.7033)" class="st11 st12">BULK SMS</text>
	</g>
	<g>
		<text transform="matrix(1.0872 0 0 1 1651.1949 -122.9783)" class="st11 st12">SEO</text>
	</g>
	<g>
		<text transform="matrix(1.0872 0 0 1 2008.4059 -2.2488)" class="st11 st12">GRAPHIC DESIGN</text>
	</g>
	<g>
		<text transform="matrix(1.0872 0 0 1 1119.7374 -3.7059)" class="st11 st12">WEB HOSTING</text>
	</g>
	<g>
		<text transform="matrix(1.0872 0 0 1 2194.405 275.0715)" class="st11 st12">DIGITAL</text>
	</g>
	<g>
		<text transform="matrix(1.0872 0 0 1 2194.405 318.7111)" class="st11 st12">MARKETING</text>
	</g>
	<g>
		<text transform="matrix(1.0872 0 0 1 2155.5144 415.2844)" class="st11 st12">PAY PER CLICK</text>
	</g>
	<polygon class="st10" points="2033.4,114.8 2046.2,100.7 2033.4,91.1 	"/>
	<polygon class="st10" points="2077.2,114.8 2077.2,91.1 2064.3,100.7 	"/>
	<polygon class="st10" points="2042.9,89.9 2043,89.9 2042.9,89.8 	"/>
	<polygon class="st10" points="2076.5,115.8 2076.4,115.7 2063.4,101.4 2055.3,107.4 2047.2,101.4 2034.2,115.7 2034.1,115.8 	"/>
	<polygon class="st10" points="2047,99.8 2047.6,100.2 2048,100.5 2055.3,105.9 2062.6,100.5 2063.1,100.2 2063.6,99.8 2076.2,90.4 
		2034.4,90.4 	"/>
	<path class="st13" d="M1754.8,349.5h-78.2c-4,0-5.9-4.8-3.2-7.6l9.2-9.1c2.1-2.1,3.2-4.9,3.2-7.8l0.6-8.6l0.5-7.8l2.1-30.1
		l0.8-11.1l0.1-1l4.4-63.6l0.3-4.2h42.3l0.3,4.2l4.4,63.6l0.1,1l0.8,11.1l2.1,30.1l0.5,7.8l0.6,8.6c0,3,1.2,5.8,3.2,7.8l9.2,9.1
		C1760.8,344.7,1758.8,349.5,1754.8,349.5z"/>
	<path class="st14" d="M1754.8,349.5h-78.2c-4,0-5.9-4.8-3.2-7.6l9.2-9.1c2.1-2.1,3.2-4.9,3.2-7.8l0.6-8.6l0.5-7.8l2.1-30.1
		l0.8-11.1l0.1-1l4.4-63.6l0.3-4.2h42.3l0.3,4.2l4.4,63.6l0.1,1l0.8,11.1l2.1,30.1l0.5,7.8l0.6,8.6c0,3,1.2,5.8,3.2,7.8l9.2,9.1
		C1760.8,344.7,1758.8,349.5,1754.8,349.5z"/>
	<g>
		<path d="M1865.2,118.1v180.2c0,0.5,0,0.9-0.1,1.4c-0.3,2.3-1.4,4.3-3,5.9c-1.8,1.7-4.2,2.8-6.8,2.8h-279.1c-0.2,0-0.4,0-0.6,0l0,0
			c-0.2,0-0.4,0-0.6-0.1c-0.2,0-0.4-0.1-0.6-0.1c-0.2,0-0.4-0.1-0.5-0.1c-0.5-0.1-0.8-0.2-1.3-0.4c-0.2-0.1-0.4-0.1-0.5-0.2
			c-0.2-0.1-0.4-0.2-0.5-0.3c-0.2-0.1-0.4-0.2-0.5-0.3c-0.2-0.1-0.4-0.2-0.5-0.3c0,0,0,0-0.1,0c-0.5-0.3-0.9-0.6-1.3-1
			c-0.2-0.1-0.3-0.3-0.4-0.4c-0.3-0.3-0.5-0.5-0.7-0.9c-0.2-0.3-0.4-0.5-0.5-0.8c-0.1-0.2-0.2-0.4-0.3-0.5s-0.2-0.4-0.3-0.5v-0.1
			c-0.1-0.2-0.2-0.4-0.2-0.5c-0.1-0.2-0.2-0.4-0.2-0.5c-0.1-0.2-0.1-0.4-0.2-0.6c-0.1-0.4-0.2-0.8-0.2-1.3c0-0.2,0-0.5-0.1-0.6
			c0-0.2,0-0.4,0-0.5V118.1c0-0.5,0-0.9,0.1-1.4c0.1-0.5,0.2-0.9,0.3-1.3v-0.1c0.1-0.2,0.1-0.4,0.2-0.6c0,0,0,0,0-0.1
			c0.1-0.2,0.2-0.4,0.2-0.5v-0.1c0.1-0.2,0.2-0.3,0.3-0.5c0,0,0-0.1,0.1-0.1c0.1-0.2,0.2-0.4,0.3-0.5c0.2-0.3,0.4-0.5,0.5-0.8
			c0.1-0.2,0.3-0.4,0.5-0.5c0.1-0.1,0.2-0.2,0.3-0.3c0,0,0,0,0.1-0.1c0.1-0.1,0.2-0.3,0.4-0.4l0,0c0.1-0.1,0.2-0.2,0.3-0.3
			c0.1-0.1,0.1-0.1,0.2-0.2c0.3-0.3,0.6-0.5,1-0.7c0.1-0.1,0.2-0.2,0.4-0.2c0.2-0.1,0.4-0.2,0.5-0.3c0.2-0.1,0.4-0.2,0.5-0.3
			c0.1-0.1,0.3-0.1,0.4-0.2c0.5-0.2,0.9-0.4,1.4-0.5c0.2,0,0.3-0.1,0.5-0.1c0.2,0,0.4-0.1,0.6-0.1c0.2,0,0.4,0,0.5-0.1
			c0,0,0,0,0.1,0c0.2,0,0.4,0,0.6,0h279C1860.7,108.1,1865.2,112.6,1865.2,118.1z"/>
		<rect x="1576.1" y="118.1" class="st13" width="279" height="149.1"/>
		<path d="M1586.1,108.1l-20,20v-9.9c0-5.5,4.5-10,10-10C1576.1,108.1,1586.1,108.1,1586.1,108.1z"/>
		<path d="M1586.1,308.3h-10c-5.5,0-10-4.5-10-10v-10L1586.1,308.3z"/>
	</g>
	<path class="st13" d="M1865.2,278.3v20c0,0.5,0,0.9-0.1,1.4c-0.3,2.3-1.4,4.3-3,5.9c-1.8,1.7-4.2,2.8-6.8,2.8h-279.1
		c-0.2,0-0.4,0-0.6,0l0,0c-0.2,0-0.4,0-0.6-0.1c-0.2,0-0.4-0.1-0.6-0.1c-0.2,0-0.4-0.1-0.5-0.1c-0.5-0.1-0.8-0.2-1.3-0.4
		c-0.2-0.1-0.4-0.1-0.5-0.2c-0.2-0.1-0.4-0.2-0.5-0.3c-0.2-0.1-0.4-0.2-0.5-0.3c-0.2-0.1-0.4-0.2-0.5-0.3c0,0,0,0-0.1,0
		c-0.5-0.3-0.9-0.6-1.3-1c-0.2-0.1-0.3-0.3-0.4-0.4c-0.3-0.3-0.5-0.5-0.7-0.9c-0.2-0.3-0.4-0.5-0.5-0.8c-0.1-0.2-0.2-0.4-0.3-0.5
		s-0.2-0.4-0.3-0.5v-0.1c-0.1-0.2-0.2-0.4-0.2-0.5c-0.1-0.2-0.2-0.4-0.2-0.5c-0.1-0.2-0.1-0.4-0.2-0.6c-0.1-0.4-0.2-0.8-0.2-1.3
		c0-0.2,0-0.5-0.1-0.6c0-0.2,0-0.4,0-0.5v-20L1865.2,278.3L1865.2,278.3z"/>
	<rect x="1576.1" y="118.1" class="st10" width="279" height="148.1"/>
	<g>
		<path class="st10" d="M1611.8,169v2.4v2.4c0,0.5-0.5,0.7-0.9,0.4l-2.5-2.5c-0.2-0.2-0.2-0.5,0-0.6l2.5-2.5
			C1611.2,168.3,1611.8,168.5,1611.8,169z"/>
		<path class="st10" d="M1819.1,174v-5.2c0-0.5,0.5-0.6,0.8-0.4l1.4,1.4l1.2,1.2c0.2,0.2,0.2,0.5,0,0.6l-2.6,2.6
			C1819.6,174.6,1819.1,174.5,1819.1,174z"/>
	</g>
	<ellipse class="st14" cx="1715.7" cy="293.4" rx="5" ry="5"/>
	
		<radialGradient id="SVGID_1_" cx="1569.825" cy="266.7032" r="191.0383" gradientTransform="matrix(0.9753 0 0 0.9798 217.1919 -38.1846)" gradientUnits="userSpaceOnUse">
		<stop  offset="0" style="stop-color:#FFFFFF;stop-opacity:0"/>
		<stop  offset="1" style="stop-color:#FFFFFF;stop-opacity:0.95"/>
	</radialGradient>
	<path class="st15" d="M1865.2,118.1v174.1l-13.9-13.9l-67.4-67.6l-8.1-8.1l-61.7-61.9l-22.3-22.3l-10-10H1855
		C1860.7,108.1,1865.2,112.6,1865.2,118.1z"/>
	<polygon class="st14" points="1744.9,316.2 1686.3,316.2 1686.9,308.3 1744.4,308.3 	"/>
	<path d="M1928.1,242.1v142c0,3.9-3.2,7.1-7.1,7.1h-106c-3.9,0-7.1-3.2-7.1-7.1v-142c0-3.9,3.2-7.1,7.1-7.1h106
		C1925,234.9,1928.1,238.2,1928.1,242.1z"/>
	<rect x="1815.1" y="242.1" class="st10" width="106" height="142"/>
	<path d="M1822.1,234.9l-14.1,14.1v-7.1c0-3.9,3.2-7.1,7.1-7.1L1822.1,234.9L1822.1,234.9L1822.1,234.9z"/>
	<g>
		<path class="st10" d="M1821,275.4v1.1v1.1c0,0.2-0.3,0.3-0.4,0.2l-1.2-1.2c-0.1-0.1-0.1-0.2,0-0.3l1.2-1.2
			C1820.7,275.1,1821,275.2,1821,275.4z"/>
		<path class="st10" d="M1915.2,277.6v-2.3c0-0.2,0.2-0.3,0.4-0.2l0.6,0.6l0.5,0.5c0.1,0.1,0.1,0.2,0,0.3l-1.2,1.2
			C1915.3,278,1915.2,277.8,1915.2,277.6z"/>
	</g>
	
		<radialGradient id="SVGID_2_" cx="1774.5885" cy="356.5663" r="119.1568" gradientTransform="matrix(0.9753 0 0 0.9798 217.1919 -38.1846)" gradientUnits="userSpaceOnUse">
		<stop  offset="0" style="stop-color:#FFFFFF;stop-opacity:0"/>
		<stop  offset="1" style="stop-color:#FFFFFF;stop-opacity:0.95"/>
	</radialGradient>
	<path class="st16" d="M1928.1,242.1v76.1l-7.1-7.1l-12.8-12.8l-12.9-12.9l-5.4-5.4l-23-23l-14.9-14.9l-3.2-3.2l-3.8-3.8h75.7
		C1925,234.9,1928.1,238.2,1928.1,242.1z"/>
	<path d="M1827.7,325.1v86.2c0,1.9-1.5,3.4-3.4,3.4h-37.7c-1.9,0-3.4-1.5-3.4-3.4v-86.2c0-1.9,1.5-3.4,3.4-3.4h37.7
		C1826.1,321.6,1827.7,323.2,1827.7,325.1z"/>
	<g class="st17">
		<ellipse class="st14" cx="1805.4" cy="407.8" rx="3.3" ry="3.3"/>
		<path class="st14" d="M1809.1,331.1h-7.4c-0.5,0-0.8-0.4-0.8-0.8l0,0c0-0.5,0.4-0.8,0.8-0.8h6.8h0.6c0.5,0,0.8,0.4,0.8,0.8l0,0
			C1809.9,330.7,1809.6,331.1,1809.1,331.1z"/>
		<circle class="st14" cx="1805.4" cy="326.9" r="1"/>
	</g>
	<rect x="1786.5" y="335.7" class="st10" width="37.7" height="65.2"/>
	<path class="st10" d="M1791.5,356.9v0.4v0.4c0,0.1-0.1,0.1-0.2,0.1l-0.4-0.4v-0.1l0.4-0.4C1791.4,356.8,1791.5,356.9,1791.5,356.9z
		"/>
	<path class="st10" d="M1820.4,357.8V357c0-0.1,0.1-0.1,0.1-0.1l0.3,0.3l0.2,0.2v0.1L1820.4,357.8L1820.4,357.8z"/>
	
		<radialGradient id="SVGID_3_" cx="1661.2875" cy="405.5594" r="58.9538" gradientTransform="matrix(0.9753 0 0 0.9798 217.1919 -38.1846)" gradientUnits="userSpaceOnUse">
		<stop  offset="0" style="stop-color:#FFFFFF;stop-opacity:0"/>
		<stop  offset="1" style="stop-color:#FFFFFF;stop-opacity:0.95"/>
	</radialGradient>
	<path class="st18" d="M1827.7,325v37.7l-1.1-1.1l-2.3-2.3l-4.6-4.6l-6.4-6.4l-0.6-0.6l0,0l-0.1-0.1l-0.5-0.5l-0.2-0.2l0,0l-0.6-0.6
		l-1.5-1.5l-9-9l-3.5-3.5l-8.1-8.1l-2.4-2.4h37.5C1826.1,321.5,1827.7,323.1,1827.7,325z"/>
	<g>
		<polygon points="1677.4,301.4 1677.4,421.2 1486.7,421.2 1486.7,301.4 1498.6,289.3 1665.6,289.3 		"/>
		<path d="M1486.7,301.4c0-6.6,5.3-11.9,12-11.9h12l-23.9,23.9L1486.7,301.4L1486.7,301.4L1486.7,301.4L1486.7,301.4z"/>
		<path d="M1677.4,301.4v11.9l-23.9-23.9h12C1672.1,289.3,1677.4,294.8,1677.4,301.4z"/>
	</g>
	<rect x="1498.6" y="301.4" class="st10" width="167" height="107.8"/>
	<g>
		<path class="st10" d="M1506.5,338.4v1.8v1.8c0,0.4-0.4,0.5-0.6,0.3l-1.8-1.8c-0.1-0.1-0.1-0.4,0-0.5l1.8-1.8
			C1506,337.8,1506.5,338,1506.5,338.4z"/>
		<path class="st10" d="M1657.8,342.1v-3.8c0-0.3,0.4-0.5,0.5-0.3l1.1,1.1l0.8,0.8c0.1,0.1,0.1,0.4,0,0.5l-1.9,1.9
			C1658.1,342.5,1657.8,342.3,1657.8,342.1z"/>
	</g>
	
		<radialGradient id="SVGID_4_" cx="1526.8822" cy="447.5588" r="173.333" gradientTransform="matrix(0.9753 0 0 0.9798 217.1919 -38.1846)" gradientUnits="userSpaceOnUse">
		<stop  offset="0" style="stop-color:#FFFFFF;stop-opacity:0"/>
		<stop  offset="1" style="stop-color:#FFFFFF;stop-opacity:0.95"/>
	</radialGradient>
	<path class="st19" d="M1677.4,301.4v109.1l-12-11.9l-24.1-24.1l-12.5-12.5l-7.2-7.2l-54.9-55.2l-9.9-9.9h108.7
		C1672.1,289.3,1677.4,294.8,1677.4,301.4z"/>
	<g>
		<line class="st20" x1="1724.6" y1="189.1" x2="1724.6" y2="228.6"/>
		<line class="st20" x1="1745.9" y1="208.8" x2="1703.2" y2="208.8"/>
	</g>
	<g>
		<line class="st20" x1="1825.1" y1="205.2" x2="1806.9" y2="188.1"/>
		<line class="st20" x1="1833.3" y1="197.6" x2="1815" y2="180.6"/>
		<line class="st20" x1="1841.5" y1="190.1" x2="1823.1" y2="173"/>
	</g>
	<path class="st14" d="M1697.7,422.7c0,0.3,0,0.6,0,0.9c-0.2,2.9-1.4,5.5-3.4,7.5c-0.2,0.2-0.5,0.5-0.6,0.6
		c-2.1,1.8-4.8,2.8-7.7,2.9h-212.2c-6.6,0-11.8-5.3-11.8-11.8L1697.7,422.7L1697.7,422.7L1697.7,422.7z"/>
	<g>
		<path class="st21" d="M1731.6,156.8c0,0-13.7-11.8-39.3-5.7c0,0-22.9,5.4-24.8,32.5c0,0-0.5,8.9,9.1,24.2c0,0,3.4,10.4,2.6,27.8
			l29.1-12.2l23.3-41.6V156.8L1731.6,156.8z"/>
		<g>
			<path class="st22" d="M1697.4,214.2h-1.9c-0.2-0.6-0.4-1.3-0.5-1.9l1.5-0.9c0.4-0.2,0.5-0.7,0.3-1.1l-1.5-2.7
				c-0.2-0.4-0.7-0.5-1.1-0.3l-1.6,0.9c-0.5-0.5-0.9-1-1.4-1.4l0.9-1.5c0.2-0.4,0.1-0.8-0.3-1.1l-2.7-1.5c-0.4-0.2-0.8-0.1-1.1,0.3
				l-0.9,1.6c-0.6-0.2-1.3-0.4-1.9-0.5v-1.8c0-0.5-0.4-0.8-0.8-0.8h-3.2c-0.5,0-0.8,0.4-0.8,0.8v1.9c-0.6,0.1-1.3,0.3-1.9,0.5
				l-0.9-1.5c-0.2-0.4-0.7-0.5-1.1-0.3l-2.7,1.5c-0.4,0.2-0.5,0.7-0.3,1.1l0.9,1.6c-0.5,0.5-1,0.9-1.4,1.4l-1.5-0.9
				c-0.4-0.2-0.8-0.1-1.1,0.3l-1.5,2.7c-0.2,0.4-0.1,0.8,0.3,1.1l1.6,0.9c-0.2,0.6-0.4,1.3-0.5,1.9h-1.8c-0.5,0-0.8,0.4-0.8,0.8v3.2
				c0,0.5,0.4,0.8,0.8,0.8h1.9c0.1,0.6,0.3,1.3,0.5,1.9l-1.5,0.9c-0.4,0.2-0.5,0.7-0.3,1.1l1.5,2.7c0.2,0.4,0.7,0.5,1.1,0.3l1.6-0.9
				c0.5,0.5,0.9,1,1.4,1.4l-0.9,1.5c-0.2,0.4-0.1,0.8,0.3,1.1l2.7,1.5c0.4,0.2,0.8,0.1,1.1-0.3l0.9-1.6c0.6,0.2,1.3,0.4,1.9,0.5v1.8
				c0,0.5,0.4,0.8,0.8,0.8h3.2c0.5,0,0.8-0.4,0.8-0.8v-1.9c0.6-0.1,1.3-0.3,1.9-0.5l0.9,1.5c0.2,0.4,0.7,0.5,1.1,0.3l2.7-1.5
				c0.4-0.2,0.5-0.7,0.3-1.1l-0.9-1.6c0.5-0.5,1-0.9,1.4-1.4l1.5,0.9c0.4,0.2,0.8,0.1,1.1-0.3l1.5-2.7c0.2-0.4,0.1-0.8-0.3-1.1
				l-1.6-0.9c0.2-0.6,0.4-1.3,0.5-1.9h1.8c0.5,0,0.8-0.4,0.8-0.8V215C1698.2,214.5,1697.8,214.2,1697.4,214.2z M1683,223
				c-3.4,0-6.2-2.8-6.2-6.2s2.8-6.2,6.2-6.2c3.4,0,6.2,2.8,6.2,6.2S1686.4,223,1683,223z"/>
			<path class="st23" d="M1683,206.8c-5.5,0-9.9,4.4-9.9,9.9s4.4,9.9,9.9,9.9c5.5,0,9.9-4.4,9.9-9.9
				C1692.9,211.3,1688.4,206.8,1683,206.8z M1683,224.9c-4.5,0-8.1-3.6-8.1-8.1c0-4.5,3.6-8.1,8.1-8.1c4.5,0,8.1,3.6,8.1,8.1
				C1691.1,221.2,1687.5,224.9,1683,224.9z"/>
			<path class="st23" d="M1683,206.8c-0.1,0-0.2,0-0.3,0v1.8c0.1,0,0.2,0,0.3,0c4.5,0,8.1,3.6,8.1,8.1c0,4.5-3.6,8.1-8.1,8.1
				c-0.1,0-0.2,0-0.3,0v1.8c0.1,0,0.2,0,0.3,0c5.5,0,9.9-4.4,9.9-9.9C1692.9,211.3,1688.4,206.8,1683,206.8z"/>
		</g>
		<path class="st5" d="M1679.3,235.7l51.6-79.5c1.9,1.3,5.4,4.2,7.2,6.2c5.8,6.1,10.7,13.3,10.2,25.9c-0.1,2.7-3.9,6.1-0.8,11.3
			c0,0,6.4,10.1,6.3,11.8c0,0,0.3,3.2-4.6,3.5c0,0-1.4,0.5-0.8,3.1l0.7,3.2c0,0,0.1,1.8-2.5,2.5c0,0-0.4,0.5,0.3,1.2
			c0,0,1.4,1.2-0.6,4c-0.7,1-1.8,2.3-0.9,4.9c0,0,1.2,4.9-0.7,6.1c0,0-2.1,2.7-11,2.1c-3-0.2-8.5-1.4-11.6,2.5
			c-0.1,0.2-1.7,3.2-0.7,6c0.5,1.3,0.5,2.5-0.9,2.9c-1.4,0.4-2.8-0.1-4.1-0.4c-2.5-0.5-5-1.2-7.5-2.1
			C1686.9,242.8,1679.3,235.7,1679.3,235.7z"/>
		<path class="st24" d="M1731,156.2c0,0,21.3,19.4,5,46c0,0-6.9,11-22.2,16.3c-15.2,5.2-33.4,15.4-34.3,17.2L1731,156.2z"/>
		<path class="st25" d="M1730.9,156.2c0,0,17.8,15.8,2.3,44.3c0,0-6.2,11.5-21.5,16.8c-15.2,5.2-31.5,16.5-32.5,18.3L1730.9,156.2z"
			/>
		<g>
			<path class="st22" d="M1746.2,153.8h-2.1c-0.2-0.7-0.4-1.4-0.6-2.1l1.7-1c0.5-0.3,0.5-0.7,0.4-1.2l-1.7-3
				c-0.3-0.5-0.8-0.5-1.2-0.3l-1.8,1c-0.5-0.5-1-1.1-1.5-1.5l1-1.7c0.3-0.5,0.1-0.9-0.4-1.2l-3-1.7c-0.5-0.3-0.9-0.1-1.2,0.4l-1,1.8
				c-0.7-0.3-1.4-0.5-2.1-0.5v-2c0-0.5-0.4-0.9-0.9-0.9h-3.4c-0.5,0-0.9,0.4-0.9,0.9v2.1c-0.7,0.2-1.4,0.4-2.1,0.6l-1-1.7
				c-0.3-0.5-0.7-0.5-1.2-0.4l-3,1.7c-0.5,0.3-0.5,0.7-0.3,1.2l1,1.8c-0.5,0.5-1.1,1-1.5,1.5l-1.7-1c-0.5-0.3-0.9-0.1-1.2,0.4
				l-1.7,3c-0.3,0.5-0.1,0.9,0.4,1.2l1.8,1c-0.3,0.7-0.5,1.4-0.5,2.1h-2c-0.5,0-0.9,0.4-0.9,0.9v3.4c0,0.5,0.4,0.9,0.9,0.9h2.1
				c0.2,0.7,0.4,1.4,0.6,2.1l-1.7,1c-0.5,0.3-0.5,0.7-0.3,1.2l1.7,3c0.3,0.5,0.7,0.5,1.2,0.4l1.8-1c0.5,0.5,1,1.1,1.5,1.5l-1,1.7
				c-0.3,0.5-0.1,0.9,0.3,1.2l3,1.7c0.5,0.3,0.9,0.1,1.2-0.3l1-1.8c0.7,0.3,1.4,0.5,2.1,0.5v2c0,0.5,0.4,0.9,0.9,0.9h3.4
				c0.5,0,0.9-0.4,0.9-0.9v-2.1c0.7-0.2,1.4-0.4,2.1-0.6l1,1.7c0.3,0.5,0.7,0.5,1.2,0.4l3-1.7c0.5-0.3,0.5-0.7,0.3-1.2l-1-1.8
				c0.5-0.5,1.1-1,1.5-1.5l1.7,1c0.5,0.3,0.9,0.1,1.2-0.3l1.7-3c0.3-0.5,0.1-0.9-0.3-1.2l-1.8-1c0.3-0.7,0.5-1.4,0.5-2.1h2
				c0.5,0,0.9-0.4,0.9-0.9V155C1747.1,154.3,1746.6,153.8,1746.2,153.8z M1730.3,163.5c-3.8,0-6.8-3.1-6.8-6.8
				c0-3.8,3.1-6.8,6.8-6.8c3.8,0,6.8,3.1,6.8,6.8C1737.2,160.4,1734.1,163.5,1730.3,163.5z"/>
			<path class="st23" d="M1730.3,145.8c-6,0-10.9,4.9-10.9,10.9s4.9,10.9,10.9,10.9s10.9-4.9,10.9-10.9
				C1741.2,150.7,1736.4,145.8,1730.3,145.8z M1730.3,165.5c-5,0-8.9-4-8.9-8.9c0-5,4-8.9,8.9-8.9s8.9,4,8.9,8.9
				C1739.3,161.6,1735.3,165.5,1730.3,165.5z"/>
			<path class="st23" d="M1730.3,145.8c-0.1,0-0.2,0-0.3,0v2c0.1,0,0.2,0,0.3,0c5,0,8.9,4,8.9,8.9c0,5-4,8.9-8.9,8.9
				c-0.1,0-0.2,0-0.3,0v2c0.1,0,0.2,0,0.3,0c6,0,10.9-4.9,10.9-10.9C1741.2,150.7,1736.4,145.8,1730.3,145.8z"/>
		</g>
		<g>
			<path class="st22" d="M1713.6,140.4h-1.3c-0.1-0.5-0.2-0.9-0.4-1.3l1.1-0.6c0.3-0.2,0.4-0.5,0.2-0.7l-1.1-1.9
				c-0.2-0.3-0.5-0.4-0.7-0.2l-1.1,0.6c-0.3-0.4-0.6-0.6-1-0.9l0.6-1.1c0.2-0.3,0.1-0.5-0.2-0.7l-1.9-1.1c-0.3-0.2-0.5-0.1-0.7,0.2
				l-0.6,1.1c-0.5-0.2-0.9-0.3-1.4-0.4v-1.3c0-0.3-0.3-0.5-0.5-0.5h-2.2c-0.3,0-0.5,0.3-0.5,0.5v1.3c-0.5,0.1-0.9,0.2-1.3,0.4
				l-0.6-1.1c-0.2-0.3-0.5-0.4-0.7-0.2l-1.9,1.1c-0.3,0.2-0.4,0.5-0.2,0.7l0.6,1.1c-0.4,0.3-0.6,0.6-0.9,1l-1.1-0.6
				c-0.3-0.2-0.5-0.1-0.7,0.2l-1.1,1.9c-0.2,0.3-0.1,0.5,0.2,0.7l1.1,0.6c-0.2,0.5-0.3,0.9-0.4,1.4h-1.3c-0.3,0-0.5,0.3-0.5,0.5v2.2
				c0,0.3,0.3,0.5,0.5,0.5h1.3c0.1,0.5,0.2,0.9,0.4,1.4l-1.1,0.6c-0.3,0.2-0.4,0.5-0.2,0.7l1.1,1.9c0.2,0.3,0.5,0.4,0.7,0.2l1.1-0.6
				c0.3,0.4,0.6,0.6,1,0.9l-0.6,1.1c-0.2,0.3-0.1,0.5,0.2,0.7l1.9,1.1c0.3,0.2,0.5,0.1,0.7-0.2l0.6-1.1c0.5,0.2,0.9,0.3,1.4,0.4v1.3
				c0,0.3,0.3,0.5,0.5,0.5h2.2c0.3,0,0.5-0.3,0.5-0.5v-1.3c0.5-0.1,0.9-0.2,1.3-0.4l0.6,1.1c0.2,0.3,0.5,0.4,0.7,0.2l1.9-1.1
				c0.3-0.2,0.4-0.5,0.2-0.7l-0.6-1.1c0.4-0.3,0.6-0.6,1-1l1.1,0.6c0.3,0.2,0.5,0.1,0.7-0.2l1.1-1.9c0.2-0.3,0.1-0.5-0.2-0.7
				l-1.1-0.6c0.2-0.5,0.3-0.9,0.4-1.4h1.3c0.3,0,0.5-0.3,0.5-0.5V141C1714.1,140.7,1713.9,140.4,1713.6,140.4z M1703.8,146.5
				c-2.3,0-4.2-1.9-4.2-4.2s1.9-4.2,4.2-4.2s4.2,1.9,4.2,4.2C1708,144.6,1706.1,146.5,1703.8,146.5z"/>
			<path class="st23" d="M1703.7,135.4c-3.7,0-6.8,3.1-6.8,6.8s3.1,6.8,6.8,6.8s6.8-3.1,6.8-6.8
				C1710.5,138.4,1707.5,135.4,1703.7,135.4z M1703.8,147.7c-3.1,0-5.6-2.5-5.6-5.6c0-3.1,2.5-5.6,5.6-5.6s5.6,2.5,5.6,5.6
				C1709.3,145.2,1706.8,147.7,1703.8,147.7z"/>
			<path class="st23" d="M1703.7,135.4c-0.1,0-0.1,0-0.2,0v1.2c0.1,0,0.1,0,0.2,0c3.1,0,5.6,2.5,5.6,5.6c0,3.1-2.5,5.6-5.6,5.6
				c-0.1,0-0.1,0-0.2,0v1.2c0.1,0,0.1,0,0.2,0c3.7,0,6.8-3.1,6.8-6.8C1710.5,138.4,1707.5,135.4,1703.7,135.4z"/>
		</g>
	</g>
	<g>
		<path class="st21" d="M1591.4,330.7c0,0-8.9-7.7-25.4-3.7c0,0-14.8,3.5-16.1,21.1c0,0-0.3,5.8,5.9,15.7c0,0,2.3,6.7,1.7,18
			l18.8-7.9l15.1-26.9L1591.4,330.7L1591.4,330.7z"/>
		<g>
			<path class="st22" d="M1569.3,367.9h-1.2c-0.1-0.5-0.2-0.8-0.4-1.3l1-0.5c0.3-0.2,0.4-0.5,0.2-0.7l-1-1.7
				c-0.2-0.3-0.5-0.4-0.7-0.2l-1.1,0.6c-0.3-0.4-0.6-0.6-0.9-0.9l0.5-1c0.2-0.3,0.1-0.5-0.2-0.7l-1.7-1c-0.3-0.2-0.5-0.1-0.7,0.2
				l-0.6,1.1c-0.4-0.2-0.8-0.3-1.3-0.4v-1.2c0-0.3-0.3-0.5-0.5-0.5h-2.1c-0.3,0-0.5,0.3-0.5,0.5v1.2c-0.5,0.1-0.8,0.2-1.3,0.4
				l-0.5-1c-0.2-0.3-0.5-0.4-0.7-0.2l-1.7,1c-0.3,0.2-0.4,0.5-0.2,0.7l0.6,1.1c-0.4,0.3-0.6,0.6-0.9,0.9l-1-0.5
				c-0.3-0.2-0.5-0.1-0.7,0.2l-1,1.8c-0.2,0.3-0.1,0.5,0.2,0.7l1.1,0.6c-0.2,0.4-0.3,0.8-0.3,1.3h-1.2c-0.3,0-0.5,0.3-0.5,0.5v2.1
				c0,0.3,0.3,0.5,0.5,0.5h1.2c0.1,0.5,0.2,0.8,0.4,1.3l-1,0.5c-0.3,0.2-0.4,0.5-0.2,0.7l1,1.7c0.2,0.3,0.5,0.4,0.7,0.2l1.1-0.6
				c0.3,0.4,0.6,0.6,0.9,0.9l-0.5,1c-0.2,0.3-0.1,0.5,0.2,0.7l1.8,1c0.3,0.2,0.5,0.1,0.7-0.2l0.6-1.1c0.4,0.2,0.8,0.3,1.3,0.3v1.2
				c0,0.3,0.3,0.5,0.5,0.5h2.1c0.3,0,0.5-0.3,0.5-0.5v-1.2c0.5-0.1,0.8-0.2,1.3-0.4l0.6,1c0.2,0.3,0.5,0.4,0.7,0.2l1.8-1
				c0.3-0.2,0.4-0.5,0.2-0.7l-0.6-1.1c0.4-0.3,0.6-0.6,0.9-0.9l1,0.6c0.3,0.2,0.5,0.1,0.7-0.2l1-1.8c0.2-0.3,0.1-0.5-0.2-0.7
				l-1.1-0.6c0.2-0.4,0.3-0.8,0.4-1.3h1.2c0.3,0,0.5-0.3,0.5-0.5v-2.1C1569.8,368.1,1569.6,367.9,1569.3,367.9z M1559.9,373.6
				c-2.3,0-4.1-1.8-4.1-4.1c0-2.3,1.8-4.1,4.1-4.1s4.1,1.8,4.1,4.1C1564,371.8,1562.2,373.6,1559.9,373.6z"/>
			<path class="st23" d="M1559.9,363.1c-3.5,0-6.4,2.9-6.4,6.4c0,3.5,2.9,6.4,6.4,6.4c3.5,0,6.4-2.9,6.4-6.4
				S1563.4,363.1,1559.9,363.1z M1559.9,374.8c-2.9,0-5.2-2.3-5.2-5.2c0-2.9,2.3-5.2,5.2-5.2c2.9,0,5.2,2.3,5.2,5.2
				C1565.2,372.4,1562.8,374.8,1559.9,374.8z"/>
			<path class="st23" d="M1559.9,363.1c-0.1,0-0.1,0-0.2,0v1.2c0.1,0,0.1,0,0.2,0c2.9,0,5.2,2.3,5.2,5.2c0,2.9-2.3,5.2-5.2,5.2
				c-0.1,0-0.1,0-0.2,0v1.2c0.1,0,0.1,0,0.2,0c3.5,0,6.4-2.9,6.4-6.4S1563.4,363.1,1559.9,363.1z"/>
		</g>
		<path class="st5" d="M1557.6,381.8l33.4-51.4c1.3,0.8,3.5,2.8,4.7,4c3.7,4,6.9,8.6,6.6,16.8c-0.1,1.8-2.5,4-0.5,7.3
			c0,0,4.1,6.5,4.1,7.7c0,0,0.2,2.1-3,2.3c0,0-0.9,0.3-0.5,2l0.5,2.1c0,0,0.1,1.2-1.6,1.6c0,0-0.3,0.3,0.2,0.7c0,0,0.9,0.7-0.4,2.6
			c-0.5,0.6-1.2,1.5-0.6,3.2c0,0,0.7,3.2-0.5,4c0,0-1.4,1.8-7.1,1.4c-1.9-0.1-5.5-0.9-7.6,1.6c-0.1,0.1-1.1,2.1-0.5,4
			c0.3,0.8,0.4,1.6-0.6,1.9c-0.9,0.3-1.8-0.1-2.7-0.3c-1.6-0.4-3.2-0.8-4.9-1.4C1562.5,386.5,1557.6,381.8,1557.6,381.8z"/>
		<path class="st24" d="M1591,330.4c0,0,13.8,12.6,3.2,29.8c0,0-4.5,7.1-14.4,10.5c-9.8,3.4-21.6,9.9-22.2,11.1L1591,330.4z"/>
		<path class="st25" d="M1591,330.4c0,0,11.5,10.3,1.5,28.7c0,0-4.1,7.5-14,10.9c-9.8,3.4-20.4,10.7-21,11.9L1591,330.4z"/>
		<g>
			<path class="st22" d="M1600.9,328.8h-1.4c-0.1-0.5-0.2-0.9-0.4-1.4l1.1-0.6c0.3-0.2,0.4-0.5,0.2-0.7l-1.1-1.9
				c-0.2-0.3-0.5-0.4-0.7-0.2l-1.2,0.6c-0.3-0.4-0.6-0.7-1-1l0.6-1.1c0.2-0.3,0.1-0.6-0.2-0.7l-1.9-1.1c-0.3-0.2-0.6-0.1-0.7,0.2
				l-0.6,1.2c-0.5-0.2-0.9-0.3-1.4-0.4v-1.3c0-0.3-0.3-0.5-0.5-0.5h-2.3c-0.3,0-0.5,0.3-0.5,0.5v1.4c-0.5,0.1-0.9,0.2-1.4,0.4
				l-0.6-1.1c-0.2-0.3-0.5-0.4-0.7-0.2l-1.9,1.1c-0.3,0.2-0.4,0.5-0.2,0.7l0.6,1.2c-0.4,0.3-0.7,0.6-1,1l-1.1-0.6
				c-0.3-0.2-0.6-0.1-0.7,0.2l-1.1,1.9c-0.2,0.3-0.1,0.6,0.2,0.7l1.2,0.6c-0.2,0.5-0.3,0.9-0.4,1.4h-1.3c-0.3,0-0.5,0.3-0.5,0.5v2.3
				c0,0.3,0.3,0.5,0.5,0.5h1.4c0.1,0.5,0.2,0.9,0.4,1.4l-1.1,0.6c-0.3,0.2-0.4,0.5-0.2,0.7l1.1,1.9c0.2,0.3,0.5,0.4,0.7,0.2l1.2-0.6
				c0.3,0.4,0.6,0.7,1,1l-0.6,1.1c-0.2,0.3-0.1,0.6,0.2,0.7l1.9,1.1c0.3,0.2,0.6,0.1,0.7-0.2l0.6-1.2c0.5,0.2,0.9,0.3,1.4,0.4v1.3
				c0,0.3,0.3,0.5,0.5,0.5h2.3c0.3,0,0.5-0.3,0.5-0.5v-1.4c0.5-0.1,0.9-0.2,1.4-0.4l0.6,1.1c0.2,0.3,0.5,0.4,0.7,0.2l1.9-1.1
				c0.3-0.2,0.4-0.5,0.2-0.7l-0.6-1.2c0.4-0.3,0.7-0.6,1-1l1.1,0.6c0.3,0.2,0.6,0.1,0.7-0.2l1.1-1.9c0.2-0.3,0.1-0.6-0.2-0.7
				l-1.2-0.6c0.2-0.5,0.3-0.9,0.4-1.4h1.3c0.3,0,0.5-0.3,0.5-0.5v-2.3C1601.4,329.1,1601.2,328.8,1600.9,328.8z M1590.6,335.1
				c-2.4,0-4.4-2-4.4-4.4c0-2.4,2-4.4,4.4-4.4c2.4,0,4.4,2,4.4,4.4S1593.1,335.1,1590.6,335.1z"/>
			<path class="st23" d="M1590.6,323.6c-3.9,0-7,3.2-7,7s3.2,7,7,7c3.9,0,7-3.2,7-7S1594.5,323.6,1590.6,323.6z M1590.6,336.4
				c-3.2,0-5.8-2.6-5.8-5.8s2.6-5.8,5.8-5.8c3.2,0,5.8,2.6,5.8,5.8S1593.8,336.4,1590.6,336.4z"/>
			<path class="st23" d="M1590.6,323.6c-0.1,0-0.1,0-0.2,0v1.3c0.1,0,0.1,0,0.2,0c3.2,0,5.8,2.6,5.8,5.8c0,3.2-2.6,5.8-5.8,5.8
				c-0.1,0-0.1,0-0.2,0v1.3c0.1,0,0.1,0,0.2,0c3.9,0,7-3.2,7-7S1594.5,323.6,1590.6,323.6z"/>
		</g>
		<g>
			<path class="st22" d="M1579.7,320.1h-0.8c-0.1-0.3-0.2-0.5-0.3-0.8l0.7-0.4c0.2-0.1,0.2-0.3,0.1-0.5l-0.7-1.2
				c-0.1-0.2-0.3-0.2-0.5-0.1l-0.7,0.5c-0.2-0.2-0.4-0.5-0.6-0.6l0.4-0.7c0.1-0.2,0-0.4-0.1-0.5l-1.2-0.7c-0.2-0.1-0.4,0-0.5,0.1
				l-0.5,0.7c-0.3-0.1-0.5-0.2-0.8-0.2V315c0-0.2-0.2-0.4-0.4-0.4h-1.4c-0.2,0-0.4,0.2-0.4,0.4v0.8c-0.3,0.1-0.5,0.2-0.8,0.3
				l-0.4-0.7c-0.1-0.2-0.3-0.2-0.5-0.1l-1.2,0.7c-0.2,0.1-0.2,0.3-0.1,0.5l0.5,0.7c-0.2,0.2-0.5,0.4-0.6,0.6l-0.7-0.4
				c-0.2-0.1-0.4,0-0.5,0.1l-0.7,1.2c-0.1,0.2,0,0.4,0.1,0.5l0.7,0.5c-0.1,0.3-0.2,0.5-0.2,0.8h-0.8c-0.2,0-0.4,0.2-0.4,0.4v1.4
				c0,0.2,0.2,0.4,0.4,0.4h0.8c0.1,0.3,0.2,0.5,0.3,0.8l-0.7,0.4c-0.2,0.1-0.2,0.3-0.1,0.5l0.7,1.2c0.1,0.2,0.3,0.2,0.5,0.1l0.7-0.5
				c0.2,0.2,0.4,0.5,0.6,0.6l-0.4,0.7c-0.1,0.2,0,0.4,0.1,0.5l1.2,0.7c0.2,0.1,0.4,0,0.5-0.1l0.5-0.7c0.3,0.1,0.5,0.2,0.8,0.2v0.8
				c0,0.2,0.2,0.4,0.4,0.4h1.4c0.2,0,0.4-0.2,0.4-0.4v-0.8c0.3-0.1,0.5-0.2,0.8-0.3l0.4,0.7c0.1,0.2,0.3,0.2,0.5,0.1l1.2-0.7
				c0.2-0.1,0.2-0.3,0.1-0.5l-0.5-0.7c0.2-0.2,0.5-0.4,0.6-0.6l0.7,0.4c0.2,0.1,0.4,0,0.5-0.1l0.7-1.2c0.1-0.2,0-0.4-0.1-0.5
				l-0.7-0.5c0.1-0.3,0.2-0.5,0.2-0.8h0.8c0.2,0,0.4-0.2,0.4-0.4v-1.4C1580.1,320.3,1580,320.1,1579.7,320.1z M1573.4,324
				c-1.5,0-2.8-1.3-2.8-2.8c0-1.5,1.3-2.8,2.8-2.8c1.5,0,2.8,1.3,2.8,2.8C1576.1,322.8,1575,324,1573.4,324z"/>
			<path class="st23" d="M1573.4,316.9c-2.4,0-4.4,2-4.4,4.4c0,2.4,2,4.4,4.4,4.4s4.4-2,4.4-4.4
				C1577.8,318.9,1575.8,316.9,1573.4,316.9z M1573.4,324.9c-2,0-3.6-1.6-3.6-3.6c0-2,1.6-3.6,3.6-3.6s3.6,1.6,3.6,3.6
				C1576.9,323.3,1575.4,324.9,1573.4,324.9z"/>
			<path class="st23" d="M1573.4,316.9L1573.4,316.9l-0.1,0.8h0.1c2,0,3.6,1.6,3.6,3.6c0,2-1.6,3.6-3.6,3.6h-0.1v0.8h0.1
				c2.4,0,4.4-2,4.4-4.4C1577.8,318.9,1575.8,316.9,1573.4,316.9z"/>
		</g>
	</g>
	<g>
		<path class="st21" d="M1883.4,290.8c0,0-9.1-7.8-26-3.8c0,0-15.1,3.6-16.5,21.5c0,0-0.3,5.9,6,16c0,0,2.3,6.8,1.7,18.5l19.3-8.1
			l15.5-27.6L1883.4,290.8L1883.4,290.8z"/>
		<g>
			<path class="st22" d="M1860.7,328.8h-1.3c-0.1-0.5-0.2-0.9-0.4-1.3l1.1-0.6c0.3-0.2,0.4-0.5,0.2-0.7l-1.1-1.8
				c-0.2-0.3-0.5-0.4-0.7-0.2l-1.1,0.6c-0.3-0.4-0.6-0.6-0.9-0.9l0.6-1.1c0.2-0.3,0.1-0.5-0.2-0.7l-1.8-1.1
				c-0.3-0.2-0.5-0.1-0.7,0.2l-0.6,1.1c-0.5-0.2-0.8-0.3-1.3-0.4v-1.2c0-0.3-0.3-0.5-0.5-0.5h-2.1c-0.3,0-0.5,0.3-0.5,0.5v1.3
				c-0.5,0.1-0.9,0.2-1.3,0.4l-0.6-1.1c-0.2-0.3-0.5-0.4-0.7-0.2l-1.8,1.1c-0.3,0.2-0.4,0.5-0.2,0.7l0.6,1.1
				c-0.4,0.3-0.6,0.6-0.9,0.9l-1.1-0.6c-0.3-0.2-0.5-0.1-0.7,0.2l-1.1,1.8c-0.2,0.3-0.1,0.5,0.2,0.7l1.1,0.6
				c-0.2,0.5-0.3,0.8-0.4,1.3h-1.2c-0.3,0-0.5,0.3-0.5,0.5v2.1c0,0.3,0.3,0.5,0.5,0.5h1.3c0.1,0.5,0.2,0.9,0.4,1.3l-1.1,0.6
				c-0.3,0.2-0.4,0.5-0.2,0.7l1.1,1.8c0.2,0.3,0.5,0.4,0.7,0.2l1.1-0.6c0.3,0.4,0.6,0.6,0.9,0.9l-0.6,1.1c-0.2,0.3-0.1,0.5,0.2,0.7
				l1.8,1.1c0.3,0.2,0.5,0.1,0.7-0.2l0.6-1.1c0.5,0.2,0.8,0.3,1.3,0.4v1.2c0,0.3,0.3,0.5,0.5,0.5h2.1c0.3,0,0.5-0.3,0.5-0.5v-1.3
				c0.5-0.1,0.9-0.2,1.3-0.4l0.6,1c0.2,0.3,0.5,0.4,0.7,0.2l1.8-1.1c0.3-0.2,0.4-0.5,0.2-0.7l-0.6-1.1c0.4-0.3,0.6-0.6,0.9-0.9
				l1.1,0.6c0.3,0.2,0.5,0.1,0.7-0.2l1.1-1.8c0.2-0.3,0.1-0.5-0.2-0.7l-1.1-0.6c0.2-0.5,0.3-0.8,0.4-1.3h1.2c0.3,0,0.5-0.3,0.5-0.5
				v-2.1C1861.1,329,1861,328.8,1860.7,328.8z M1851.1,334.6c-2.3,0-4.1-1.9-4.1-4.1s1.9-4.1,4.1-4.1c2.3,0,4.1,1.9,4.1,4.1
				C1855.2,332.8,1853.4,334.6,1851.1,334.6z"/>
			<path class="st23" d="M1851.1,323.9c-3.6,0-6.6,3-6.6,6.6s3,6.6,6.6,6.6s6.6-3,6.6-6.6C1857.6,326.9,1854.8,323.9,1851.1,323.9z
				 M1851.1,335.9c-3,0-5.4-2.4-5.4-5.4s2.4-5.4,5.4-5.4s5.4,2.4,5.4,5.4S1854,335.9,1851.1,335.9z"/>
			<path class="st23" d="M1851.1,323.9c-0.1,0-0.1,0-0.2,0v1.2c0.1,0,0.1,0,0.2,0c3,0,5.4,2.4,5.4,5.4s-2.4,5.4-5.4,5.4
				c-0.1,0-0.1,0-0.2,0v1.2c0.1,0,0.1,0,0.2,0c3.6,0,6.6-3,6.6-6.6C1857.6,326.9,1854.8,323.9,1851.1,323.9z"/>
		</g>
		<path class="st5" d="M1848.7,343.1l34.2-52.7c1.3,0.8,3.6,2.8,4.8,4.1c3.8,4.1,7.1,8.8,6.8,17.2c-0.1,1.8-2.5,4.1-0.5,7.5
			c0,0,4.2,6.7,4.1,7.8c0,0,0.2,2.1-3.1,2.3c0,0-0.9,0.3-0.5,2.1l0.5,2.2c0,0,0.1,1.2-1.6,1.6c0,0-0.3,0.3,0.2,0.8
			c0,0,0.9,0.8-0.4,2.6c-0.5,0.6-1.2,1.5-0.6,3.2c0,0,0.8,3.2-0.5,4.1c0,0-1.4,1.8-7.3,1.4c-2-0.2-5.6-0.9-7.7,1.7
			c-0.1,0.1-1.2,2.2-0.5,4.1c0.3,0.8,0.4,1.7-0.6,1.9c-0.9,0.3-1.8-0.1-2.7-0.3c-1.7-0.4-3.3-0.8-5-1.4
			C1853.7,347.8,1848.7,343.1,1848.7,343.1z"/>
		<path class="st24" d="M1882.9,290.4c0,0,14.1,12.9,3.2,30.5c0,0-4.6,7.3-14.8,10.8c-10.1,3.4-22.1,10.2-22.8,11.3L1882.9,290.4z"
			/>
		<path class="st25" d="M1882.9,290.3c0,0,11.8,10.5,1.5,29.3c0,0-4.1,7.7-14.2,11.2c-10.1,3.4-20.9,11-21.5,12.2L1882.9,290.3z"/>
		<g>
			<path class="st22" d="M1893,288.8h-1.4c-0.1-0.5-0.3-0.9-0.4-1.4l1.2-0.6c0.3-0.2,0.4-0.5,0.2-0.8l-1.2-2
				c-0.2-0.3-0.5-0.4-0.8-0.2l-1.2,0.7c-0.4-0.4-0.6-0.7-1-1l0.6-1.2c0.2-0.3,0.1-0.6-0.2-0.8l-2-1.2c-0.3-0.2-0.6-0.1-0.8,0.2
				l-0.7,1.2c-0.5-0.2-0.9-0.3-1.4-0.4v-1.4c0-0.3-0.3-0.5-0.5-0.5h-2.3c-0.4,0-0.5,0.3-0.5,0.5v1.4c-0.5,0.1-0.9,0.3-1.4,0.4
				l-0.6-1.2c-0.2-0.3-0.5-0.4-0.8-0.2l-2,1.2c-0.3,0.2-0.4,0.5-0.2,0.8l0.7,1.2c-0.4,0.4-0.7,0.6-1,1l-1.2-0.6
				c-0.3-0.2-0.6-0.1-0.8,0.2l-1.2,2c-0.2,0.3-0.1,0.6,0.2,0.8l1.2,0.7c-0.2,0.5-0.3,0.9-0.4,1.4h-1.4c-0.4,0-0.5,0.3-0.5,0.5v2.3
				c0,0.3,0.3,0.5,0.5,0.5h1.4c0.1,0.5,0.3,1,0.4,1.4l-1.2,0.6c-0.3,0.2-0.4,0.5-0.2,0.8l1.2,2c0.2,0.3,0.5,0.4,0.8,0.2l1.2-0.7
				c0.4,0.4,0.6,0.7,1,1l-0.6,1.2c-0.2,0.3-0.1,0.6,0.2,0.8l2,1.2c0.3,0.2,0.6,0.1,0.8-0.2l0.7-1.2c0.5,0.2,0.9,0.3,1.4,0.4v1.4
				c0,0.3,0.3,0.5,0.5,0.5h2.3c0.3,0,0.5-0.3,0.5-0.5v-1.4c0.5-0.1,0.9-0.3,1.4-0.4l0.6,1.2c0.2,0.3,0.5,0.4,0.8,0.2l2-1.2
				c0.3-0.2,0.4-0.5,0.2-0.8l-0.7-1.2c0.4-0.4,0.7-0.6,1-1l1.2,0.6c0.3,0.2,0.6,0.1,0.8-0.2l1.2-2c0.2-0.3,0.1-0.6-0.2-0.8l-1.2-0.7
				c0.2-0.5,0.3-0.9,0.4-1.4h1.4c0.3,0,0.5-0.3,0.5-0.5v-2.3C1893.6,289.1,1893.4,288.8,1893,288.8z M1882.5,295.2
				c-2.5,0-4.5-2.1-4.5-4.5c0-2.5,2.1-4.5,4.5-4.5c2.5,0,4.5,2.1,4.5,4.5C1887.1,293.2,1885,295.2,1882.5,295.2z"/>
			<path class="st23" d="M1882.5,283.5c-4,0-7.2,3.2-7.2,7.2c0,4,3.2,7.2,7.2,7.2s7.2-3.2,7.2-7.2
				C1889.7,286.7,1886.5,283.5,1882.5,283.5z M1882.5,296.5c-3.2,0-5.9-2.6-5.9-5.9c0-3.2,2.6-5.9,5.9-5.9c3.2,0,5.9,2.6,5.9,5.9
				C1888.4,293.9,1885.8,296.5,1882.5,296.5z"/>
			<path class="st23" d="M1882.5,283.5c-0.1,0-0.1,0-0.2,0v1.3c0.1,0,0.1,0,0.2,0c3.2,0,5.9,2.6,5.9,5.9c0,3.2-2.6,5.9-5.9,5.9
				c-0.1,0-0.1,0-0.2,0v1.3c0.1,0,0.1,0,0.2,0c4,0,7.2-3.2,7.2-7.2C1889.7,286.7,1886.5,283.5,1882.5,283.5z"/>
		</g>
		<g>
			<path class="st22" d="M1871.4,280h-0.8c-0.1-0.3-0.2-0.6-0.3-0.9l0.7-0.5c0.2-0.1,0.3-0.3,0.1-0.5l-0.7-1.3
				c-0.1-0.2-0.4-0.3-0.5-0.1l-0.7,0.5c-0.2-0.2-0.5-0.5-0.6-0.6l0.5-0.7c0.1-0.2,0-0.4-0.1-0.5l-1.3-0.7c-0.2-0.1-0.4,0-0.5,0.1
				l-0.5,0.7c-0.3-0.1-0.5-0.2-0.9-0.2v-0.8c0-0.2-0.2-0.4-0.4-0.4h-1.4c-0.2,0-0.4,0.2-0.4,0.4v0.8c-0.3,0.1-0.5,0.2-0.9,0.3
				l-0.5-0.7c-0.1-0.2-0.4-0.3-0.5-0.1l-1.3,0.7c-0.2,0.1-0.3,0.3-0.1,0.5l0.5,0.7c-0.2,0.2-0.5,0.5-0.6,0.6l-0.7-0.5
				c-0.2-0.1-0.4,0-0.5,0.1l-0.7,1.3c-0.1,0.2,0,0.4,0.1,0.5l0.7,0.5c-0.1,0.3-0.2,0.5-0.2,0.9h-0.8c-0.2,0-0.4,0.2-0.4,0.4v1.4
				c0,0.2,0.2,0.4,0.4,0.4h0.8c0.1,0.3,0.2,0.6,0.3,0.9l-0.7,0.5c-0.2,0.1-0.3,0.3-0.1,0.5l0.7,1.3c0.1,0.2,0.3,0.3,0.5,0.1l0.7-0.5
				c0.2,0.3,0.5,0.5,0.6,0.6l-0.5,0.7c-0.1,0.2,0,0.4,0.1,0.5l1.3,0.7c0.2,0.1,0.4,0,0.5-0.1l0.5-0.7c0.3,0.1,0.5,0.2,0.9,0.2v0.8
				c0,0.2,0.2,0.4,0.4,0.4h1.4c0.2,0,0.4-0.2,0.4-0.4v-0.8c0.3-0.1,0.5-0.2,0.9-0.3l0.5,0.7c0.1,0.2,0.3,0.3,0.5,0.1l1.3-0.7
				c0.2-0.1,0.3-0.3,0.1-0.5l-0.5-0.7c0.3-0.2,0.5-0.5,0.6-0.6l0.7,0.5c0.2,0.1,0.4,0,0.5-0.1l0.7-1.3c0.1-0.2,0-0.4-0.1-0.5
				l-0.7-0.5c0.1-0.3,0.2-0.5,0.2-0.9h0.8c0.2,0,0.4-0.2,0.4-0.4v-1.4C1871.8,280.1,1871.6,280,1871.4,280z M1864.8,283.9
				c-1.5,0-2.8-1.3-2.8-2.8s1.3-2.8,2.8-2.8c1.5,0,2.8,1.3,2.8,2.8C1867.7,282.7,1866.5,283.9,1864.8,283.9z"/>
			<path class="st23" d="M1864.8,276.6c-2.4,0-4.5,2-4.5,4.5c0,2.4,2,4.5,4.5,4.5c2.4,0,4.5-2,4.5-4.5
				C1869.3,278.6,1867.4,276.6,1864.8,276.6z M1864.8,284.7c-2.1,0-3.7-1.6-3.7-3.7s1.6-3.7,3.7-3.7c2.1,0,3.7,1.6,3.7,3.7
				C1868.5,283.1,1866.9,284.7,1864.8,284.7z"/>
			<path class="st23" d="M1864.8,276.6L1864.8,276.6l-0.1,0.8h0.1c2.1,0,3.7,1.6,3.7,3.7c0,2.1-1.6,3.7-3.7,3.7h-0.1v0.8h0.1
				c2.4,0,4.5-2,4.5-4.5C1869.3,278.6,1867.4,276.6,1864.8,276.6z"/>
		</g>
	</g>
	<g>
		<path class="st21" d="M1812.4,357.7c0,0-4-3.4-11.3-1.6c0,0-6.7,1.5-7.2,9.5c0,0-0.1,2.6,2.6,7c0,0,1,3,0.7,8.1l8.5-3.5l6.8-12.1
			L1812.4,357.7L1812.4,357.7z"/>
		<g>
			<path class="st22" d="M1802.5,374.4h-0.5c0-0.2-0.1-0.4-0.2-0.5l0.5-0.3c0.1-0.1,0.2-0.2,0.1-0.3l-0.5-0.8
				c-0.1-0.1-0.2-0.2-0.3-0.1l-0.5,0.3c-0.1-0.2-0.3-0.3-0.5-0.4l0.3-0.5c0.1-0.1,0-0.3-0.1-0.3l-0.8-0.5c-0.1-0.1-0.3,0-0.3,0.1
				l-0.3,0.5c-0.2-0.1-0.4-0.1-0.5-0.2V371c0-0.1-0.1-0.3-0.3-0.3h-0.9c-0.1,0-0.3,0.1-0.3,0.3v0.5c-0.2,0-0.4,0.1-0.5,0.2l-0.3-0.5
				c-0.1-0.1-0.2-0.2-0.3-0.1l-0.8,0.5c-0.1,0.1-0.2,0.2-0.1,0.3l0.3,0.5c-0.2,0.1-0.3,0.3-0.4,0.5l-0.5-0.3c-0.1-0.1-0.3,0-0.3,0.1
				l-0.5,0.8c-0.1,0.1,0,0.3,0.1,0.3l0.5,0.3c-0.1,0.2-0.1,0.4-0.2,0.5h-0.5c-0.1,0-0.3,0.1-0.3,0.3v0.9c0,0.1,0.1,0.3,0.3,0.3h0.5
				c0,0.2,0.1,0.4,0.2,0.5l-0.5,0.3c-0.1,0.1-0.2,0.2-0.1,0.3l0.5,0.8c0.1,0.1,0.2,0.2,0.3,0.1l0.5-0.3c0.1,0.2,0.3,0.3,0.5,0.4
				l-0.3,0.5c-0.1,0.1,0,0.3,0.1,0.3l0.8,0.5c0.1,0.1,0.3,0,0.3-0.1l0.3-0.5c0.2,0.1,0.4,0.1,0.5,0.2v0.5c0,0.1,0.1,0.3,0.3,0.3h0.9
				c0.1,0,0.3-0.1,0.3-0.3v-0.5c0.2,0,0.4-0.1,0.5-0.2l0.3,0.5c0.1,0.1,0.2,0.2,0.3,0.1l0.8-0.5c0.1-0.1,0.2-0.2,0.1-0.3l-0.3-0.5
				c0.2-0.1,0.3-0.3,0.4-0.5l0.5,0.3c0.1,0.1,0.3,0,0.3-0.1l0.5-0.8c0.1-0.1,0-0.3-0.1-0.3l-0.5-0.3c0.1-0.2,0.1-0.4,0.2-0.5h0.5
				c0.1,0,0.3-0.1,0.3-0.3v-0.9C1802.7,374.5,1802.6,374.4,1802.5,374.4z M1798.3,377c-1,0-1.8-0.8-1.8-1.8s0.8-1.8,1.8-1.8
				s1.8,0.8,1.8,1.8S1799.3,377,1798.3,377z"/>
			<path class="st23" d="M1798.3,372.3c-1.6,0-2.9,1.3-2.9,2.9c0,1.6,1.3,2.9,2.9,2.9s2.9-1.3,2.9-2.9
				C1801.2,373.6,1799.9,372.3,1798.3,372.3z M1798.3,377.5c-1.3,0-2.3-1.1-2.3-2.3c0-1.3,1.1-2.3,2.3-2.3s2.3,1.1,2.3,2.3
				C1800.7,376.5,1799.7,377.5,1798.3,377.5z"/>
			<path class="st23" d="M1798.3,372.3L1798.3,372.3l-0.1,0.5h0.1c1.3,0,2.3,1.1,2.3,2.3c0,1.3-1.1,2.3-2.3,2.3h-0.1v0.5h0.1
				c1.6,0,2.9-1.3,2.9-2.9C1801.2,373.6,1799.9,372.3,1798.3,372.3z"/>
		</g>
		<path class="st5" d="M1797.3,380.7l14.9-23c0.5,0.4,1.6,1.3,2.1,1.8c1.6,1.8,3.2,3.9,3,7.6c0,0.8-1.1,1.8-0.3,3.2
			c0,0,1.9,2.9,1.8,3.4c0,0,0.1,0.9-1.4,1c0,0-0.4,0.1-0.3,0.9l0.2,0.9c0,0,0,0.5-0.7,0.7c0,0-0.1,0.1,0.1,0.4c0,0,0.4,0.4-0.2,1.2
			c-0.2,0.3-0.5,0.6-0.3,1.4c0,0,0.4,1.4-0.2,1.8c0,0-0.6,0.8-3.2,0.6c-0.9-0.1-2.4-0.4-3.4,0.7c0,0.1-0.5,0.9-0.2,1.8
			c0.1,0.4,0.2,0.7-0.3,0.8c-0.5,0.1-0.8,0-1.2-0.1c-0.7-0.2-1.4-0.4-2.2-0.6C1799.5,382.8,1797.3,380.7,1797.3,380.7z"/>
		<path class="st24" d="M1812.3,357.6c0,0,6.2,5.7,1.4,13.3c0,0-2,3.2-6.5,4.8c-4.4,1.5-9.7,4.5-10,5L1812.3,357.6z"/>
		<path class="st25" d="M1812.3,357.6c0,0,5.1,4.6,0.7,12.9c0,0-1.8,3.3-6.2,4.9c-4.4,1.5-9.2,4.8-9.5,5.3L1812.3,357.6z"/>
		<g>
			<path class="st22" d="M1816.7,356.9h-0.6c0-0.2-0.1-0.5-0.2-0.6l0.5-0.3c0.1-0.1,0.2-0.2,0.1-0.4l-0.5-0.9
				c-0.1-0.1-0.2-0.2-0.4-0.1l-0.5,0.3c-0.2-0.2-0.3-0.3-0.5-0.5l0.3-0.5c0.1-0.1,0-0.3-0.1-0.4l-0.9-0.5c-0.1-0.1-0.3,0-0.4,0.1
				l-0.3,0.5c-0.2-0.1-0.4-0.1-0.6-0.2V353c0-0.2-0.1-0.3-0.3-0.3h-1c-0.2,0-0.3,0.1-0.3,0.3v0.6c-0.2,0-0.5,0.1-0.6,0.2l-0.3-0.5
				c-0.1-0.1-0.2-0.2-0.4-0.1l-0.9,0.5c-0.1,0.1-0.2,0.2-0.1,0.4l0.3,0.5c-0.2,0.2-0.3,0.3-0.5,0.5l-0.5-0.3c-0.1-0.1-0.3,0-0.4,0.1
				l-0.5,0.9c-0.1,0.1,0,0.3,0.1,0.4l0.5,0.3c-0.1,0.2-0.1,0.4-0.2,0.6h-0.5c-0.2,0-0.3,0.1-0.3,0.3v1c0,0.2,0.1,0.3,0.3,0.3h0.6
				c0,0.2,0.1,0.5,0.2,0.6l-0.5,0.3c-0.1,0.1-0.2,0.2-0.1,0.4l0.5,0.9c0.1,0.1,0.2,0.2,0.4,0.1l0.5-0.3c0.2,0.2,0.3,0.3,0.5,0.5
				l-0.3,0.5c-0.1,0.1,0,0.3,0.1,0.4l0.9,0.5c0.1,0.1,0.3,0,0.4-0.1l0.3-0.5c0.2,0.1,0.4,0.1,0.6,0.2v0.5c0,0.2,0.1,0.3,0.3,0.3h1
				c0.2,0,0.3-0.1,0.3-0.3v-0.6c0.2,0,0.5-0.1,0.6-0.2l0.3,0.5c0.1,0.1,0.2,0.2,0.4,0.1l0.9-0.5c0.1-0.1,0.2-0.2,0.1-0.4l-0.3-0.5
				c0.2-0.2,0.3-0.3,0.5-0.5l0.5,0.3c0.1,0.1,0.3,0,0.4-0.1l0.5-0.9c0.1-0.1,0-0.3-0.1-0.4l-0.5-0.3c0.1-0.2,0.1-0.4,0.2-0.6h0.5
				c0.2,0,0.3-0.1,0.3-0.3v-1C1816.9,357,1816.9,356.9,1816.7,356.9z M1812.1,359.7c-1.1,0-2-0.9-2-2s0.9-2,2-2s2,0.9,2,2
				S1813.2,359.7,1812.1,359.7z"/>
			<path class="st23" d="M1812.1,354.6c-1.7,0-3.2,1.4-3.2,3.2c0,1.7,1.4,3.2,3.2,3.2s3.2-1.4,3.2-3.2
				C1815.2,355.9,1813.8,354.6,1812.1,354.6z M1812.1,360.4c-1.4,0-2.6-1.2-2.6-2.6s1.2-2.6,2.6-2.6s2.6,1.2,2.6,2.6
				C1814.7,359.2,1813.5,360.4,1812.1,360.4z"/>
			<path class="st23" d="M1812.1,354.6C1812.1,354.6,1812,354.6,1812.1,354.6l-0.1,0.5h0.1c1.4,0,2.6,1.2,2.6,2.6s-1.2,2.6-2.6,2.6
				h-0.1v0.5h0.1c1.7,0,3.2-1.4,3.2-3.2C1815.2,355.9,1813.8,354.6,1812.1,354.6z"/>
		</g>
		<g>
			<path class="st22" d="M1807.2,353.1h-0.4c0-0.1-0.1-0.3-0.1-0.4l0.3-0.2c0.1,0,0.1-0.2,0.1-0.2l-0.3-0.5c0-0.1-0.2-0.1-0.2-0.1
				l-0.4,0.2c-0.1-0.1-0.2-0.2-0.3-0.3l0.2-0.3c0-0.1,0-0.2-0.1-0.2l-0.5-0.3c-0.1,0-0.2,0-0.2,0.1l-0.2,0.4c-0.1,0-0.3-0.1-0.4-0.1
				v-0.4c0-0.1-0.1-0.2-0.2-0.2h-0.6c-0.1,0-0.2,0.1-0.2,0.2v0.4c-0.1,0-0.3,0.1-0.4,0.1l-0.2-0.3c0-0.1-0.2-0.1-0.2-0.1l-0.5,0.3
				c-0.1,0-0.1,0.2-0.1,0.2l0.2,0.4c-0.1,0.1-0.2,0.2-0.3,0.3l-0.3-0.2c-0.1,0-0.2,0-0.2,0.1l-0.3,0.5c0,0.1,0,0.2,0.1,0.2l0.4,0.2
				c0,0.1-0.1,0.3-0.1,0.4h-0.4c-0.1,0-0.2,0.1-0.2,0.2v0.6c0,0.1,0.1,0.2,0.2,0.2h0.4c0,0.1,0.1,0.3,0.1,0.4l-0.3,0.2
				c-0.1,0-0.1,0.2-0.1,0.2l0.3,0.5c0,0.1,0.2,0.1,0.2,0.1l0.4-0.2c0.1,0.1,0.2,0.2,0.3,0.3l-0.2,0.3c0,0.1,0,0.2,0.1,0.2l0.5,0.3
				c0.1,0,0.2,0,0.2-0.1l0.2-0.4c0.1,0,0.3,0.1,0.4,0.1v0.4c0,0.1,0.1,0.2,0.2,0.2h0.6c0.1,0,0.2-0.1,0.2-0.2V356
				c0.1,0,0.3-0.1,0.4-0.1l0.2,0.3c0,0.1,0.2,0.1,0.2,0.1l0.5-0.3c0.1,0,0.1-0.2,0.1-0.2l-0.2-0.4c0.1-0.1,0.2-0.2,0.3-0.3l0.3,0.2
				c0.1,0,0.2,0,0.2-0.1l0.3-0.5c0-0.1,0-0.2-0.1-0.2l-0.4-0.2c0-0.1,0.1-0.3,0.1-0.4h0.4c0.1,0,0.2-0.1,0.2-0.2v-0.6
				C1807.4,353.1,1807.3,353.1,1807.2,353.1z M1804.3,354.8c-0.7,0-1.3-0.5-1.3-1.3c0-0.7,0.5-1.3,1.3-1.3s1.3,0.5,1.3,1.3
				C1805.6,354.2,1805.1,354.8,1804.3,354.8z"/>
			<path class="st23" d="M1804.3,351.5c-1.1,0-2,0.9-2,2s0.9,2,2,2c1.1,0,2-0.9,2-2S1805.4,351.5,1804.3,351.5z M1804.3,355.1
				c-0.9,0-1.6-0.7-1.6-1.6s0.7-1.6,1.6-1.6c0.9,0,1.6,0.7,1.6,1.6C1806,354.4,1805.2,355.1,1804.3,355.1z"/>
			<path class="st23" d="M1804.3,351.5L1804.3,351.5l-0.1,0.4c0,0,0,0,0.1,0c0.9,0,1.6,0.7,1.6,1.6c0,0.9-0.7,1.6-1.6,1.6
				c0,0,0,0-0.1,0v0.4c0,0,0,0,0.1,0c1.1,0,2-0.9,2-2C1806.3,352.4,1805.4,351.5,1804.3,351.5z"/>
		</g>
	</g>
</g>
</svg>
